<svg xml:space="preserve" width="866.627" height="664.04" xmlns="http://www.w3.org/2000/svg"><defs><path id="b" d="M81.372 109.422h192.385v139.994H81.372z"/><path id="c" d="M81.372 109.422h192.385v139.994H81.372z"/><clipPath clipPathUnits="userSpaceOnUse" id="a"><path d="M91.92 470.185h330.24V15.865H91.92Z"/></clipPath></defs><g style="display:inline"><path d="M-4.45 499.72h693.09V-13.786H-4.45Z" style="fill:#de7f6b;fill-opacity:1;fill-rule:evenodd;stroke:none;stroke-width:1.67248" transform="matrix(1.33333 0 0 -1.33333 -27.264 666.294)"/><g style="display:inline;fill:#5a558b;fill-opacity:1"><path d="M0 0v275.356h299.94V173.169Z" style="fill:#5a558b;fill-opacity:1;fill-rule:evenodd;stroke:none" transform="matrix(3.10038 0 0 -1.56428 -36.518 430.733)"/></g><g style="display:inline"><path d="m-275.306-147.98 16.987 77.6-234.549-153.03 9.99-58.39c70.143 43.314 149.45 93.69 207.572 133.82z" style="fill:#fafffa;fill-opacity:1;fill-rule:evenodd;stroke:none" transform="matrix(.49598 1.53858 1.20847 -.40188 543.356 1056.67)"/></g><g style="display:inline"><path d="m124.539-16.089-.318 51.145-568.796-233.326-.11-52.22z" style="fill:#fafffa;fill-opacity:1;fill-rule:evenodd;stroke:none" transform="matrix(1.59392 .00976 .00779 -1.27157 695.03 138.175)"/></g></g><g style="display:inline"><g style="display:inline;fill:#de556b;fill-opacity:1"><path d="M0 0c-21.104 0-38.212-11.156-38.212-24.917 0-13.762 17.108-24.918 38.212-24.918 21.104 0 38.211 11.156 38.211 24.918C38.211-11.156 21.104 0 0 0" style="fill:#de556b;fill-opacity:1;fill-rule:evenodd;stroke:none" transform="matrix(1.30377 .27922 .27922 -1.30378 574.09 310.789)"/></g><g style="display:inline;fill:#de556b;fill-opacity:1"><path d="m0 0-8.271 4.776L.001 9.553l8.272-4.776Zm-9.546-5.511-8.272 4.776 8.273 4.777 8.273-4.776zm-9.547-5.511-8.272 4.775 8.273 4.777 8.273-4.776zm-9.546-5.512-8.272 4.776 8.272 4.777 8.273-4.777zm-9.547-5.512-8.272 4.775 8.273 4.778 8.273-4.777zm-9.545-5.512-8.274 4.777 8.274 4.776 8.272-4.776zm-9.547-5.511-8.274 4.776 8.275 4.776 8.272-4.776zm-9.547-5.512-8.273 4.776 8.274 4.777 8.272-4.777zm-9.546-5.512-8.274 4.777 8.274 4.776 8.273-4.776zm-9.547-5.511-8.272 4.776 8.273 4.777 8.272-4.776zm-9.546-5.511-8.273 4.776 8.273 4.776 8.273-4.776zm-9.547-5.512-8.273 4.776 8.274 4.777 8.273-4.777zm-17.819 10.288 8.273 4.776 8.273-4.776-8.274-4.777zm-10.82-4.777-8.274 4.777 8.274 4.776 8.273-4.776zm-17.82 10.288 8.274 4.777 8.273-4.777-8.273-4.776zm-10.819-4.776-8.273 4.777 8.273 4.776 8.273-4.776zm-17.82 10.288 8.273 4.777 8.274-4.777-8.274-4.777zm-9.546 5.511 8.273 4.778 8.274-4.778-8.274-4.776zm-9.547 5.512 8.273 4.776 8.274-4.776-8.274-4.776zm-9.546 5.512 8.273 4.776 8.273-4.776-8.274-4.777zm-9.547 5.511 8.274 4.777 8.272-4.777-8.273-4.776zm-9.547 5.512 8.274 4.777 8.273-4.777-8.273-4.776zm-9.546 5.511 8.274 4.777 8.272-4.776-8.273-4.776zm-9.547 5.513 8.274 4.776 8.273-4.776-8.273-4.777zm-9.546 5.511 8.273 4.777 8.273-4.777L-248.208 0Zm-9.546 5.512 8.273 4.776 8.274-4.777-8.274-4.776zm-9.547 5.511 8.273 4.777 8.274-4.777-8.273-4.777zm-9.546 5.512 8.273 4.776 8.273-4.776-8.273-4.777zm-9.547 5.511 8.273 4.777 8.273-4.777-8.273-4.776zm-9.546 5.512 8.273 4.776 8.274-4.776-8.273-4.776zm-.001 11.023 8.274 4.777 8.273-4.777-8.273-4.777zm-9.546 5.512 8.274 4.776 8.273-4.776-8.274-4.776zm0 11.023 8.274 4.777 8.273-4.776-8.273-4.778zm17.821 10.289 8.272-4.778-8.272-4.776-8.273 4.776zm9.545 5.51 8.274-4.776-8.273-4.776-8.274 4.776zm9.547 5.512 8.273-4.776-8.273-4.777-8.273 4.777zm9.547 5.512 8.273-4.777-8.273-4.776-8.274 4.776zm9.546 5.512 8.274-4.777-8.274-4.777-8.273 4.777zm9.546 5.511 8.273-4.776-8.272-4.776-8.273 4.776zm9.548 5.512 8.272-4.776-8.273-4.778-8.274 4.777zm9.546 5.512 8.273-4.777-8.273-4.777-8.274 4.777zm9.546 5.511 8.273-4.776-8.273-4.777-8.274 4.777zm9.546 5.512 8.274-4.777-8.273-4.776-8.274 4.776zm9.546 5.511 8.275-4.776-8.274-4.777-8.274 4.777zm19.094 0 8.273-4.776-8.274-4.776-8.272 4.776zm19.093 0 8.272-4.776-8.272-4.776-8.273 4.776zm19.093 0 8.273-4.776-8.272-4.777-8.275 4.777zm17.819-10.288-8.273-4.776-8.274 4.776 8.274 4.777zm10.82 4.776 8.273-4.776-8.273-4.776-8.273 4.776zm17.82-10.287-8.274-4.777-8.272 4.777 8.272 4.776zm9.546-5.512-8.274-4.776-8.272 4.776 8.273 4.777zm9.546-5.511-8.273-4.777-8.272 4.777 8.272 4.776zm9.547-5.512-8.273-4.776-8.274 4.776 8.274 4.776zm9.546-5.512-8.272-4.776-8.274 4.776 8.273 4.777zm9.547-5.512-8.273-4.776-8.273 4.776 8.274 4.777zm9.547-5.511-8.273-4.777-8.273 4.777 8.273 4.776zm9.546-5.512-8.274-4.776-8.272 4.776 8.273 4.776zm9.546-5.511-8.273-4.776-8.273 4.776 8.273 4.777zm9.548-5.511-8.274-4.778-8.273 4.778 8.273 4.776zm9.546-5.512-8.274-4.777-8.272 4.777 8.272 4.776zm9.545-5.512L.001 44.094l-8.273 4.776 8.273 4.776Zm0-11.023L.001 33.07l-8.273 4.777 8.273 4.776zm9.547-5.512-8.273-4.776-8.273 4.776 8.273 4.776zm0-11.023-8.273-4.777-8.273 4.777 8.274 4.776zm9.547-5.512-8.273-4.777-8.273 4.777 8.274 4.776zm-35.639 0 8.273 4.776L8.273 15.8.001 11.023Zm-9.547-5.512 8.273 4.776 8.274-4.776-8.274-4.776zm-9.546-5.511 8.273 4.777 8.274-4.777-8.274-4.776zm-9.547-5.511 8.273 4.776 8.274-4.776-8.274-4.778zm-9.546-5.512 8.272 4.776 8.274-4.776-8.274-4.776zm-9.547-5.512 8.274 4.777 8.273-4.777-8.274-4.776zm-9.546-5.512 8.273 4.777 8.273-4.777-8.273-4.776zm-9.547-5.511 8.274 4.776 8.272-4.776-8.273-4.777zm-9.547-5.512 8.274 4.776 8.273-4.776-8.273-4.776zm-9.545-5.512 8.272 4.777 8.273-4.777-8.273-4.776zm-9.547-5.511 8.273 4.777 8.274-4.777-8.274-4.777zm-1.273-.735 8.273-4.776-8.274-4.777-8.272 4.777zm-17.82.736 8.273 4.776 8.273-4.777-8.273-4.777zm-1.274-.736 8.274-4.776-8.274-4.777-8.273 4.777zm-9.545 5.512 8.272-4.777-8.273-4.777-8.273 4.777zm-17.821.734 8.274 4.778 8.273-4.778-8.273-4.776zm-1.273-.735 8.273-4.776-8.273-4.777-8.274 4.777zm-9.546 5.512 8.272-4.777-8.272-4.776-8.273 4.776zm-9.547 5.511 8.274-4.776-8.274-4.776-8.273 4.776zm-9.547 5.512 8.274-4.776-8.274-4.777-8.273 4.777zm-9.546 5.512 8.274-4.777-8.274-4.776-8.273 4.776zm-9.546 5.512 8.273-4.777-8.274-4.776-8.272 4.775zm-9.546 5.511 8.272-4.776-8.273-4.776-8.274 4.776zm-9.547 5.512 8.273-4.776-8.273-4.777-8.274 4.776zm-9.547 5.512 8.273-4.777L-229.115 0l-8.274 4.777zm-9.546 5.511 8.273-4.776-8.274-4.777-8.273 4.776zm-9.547 5.512 8.273-4.777-8.273-4.777-8.273 4.777zm-9.546 5.511 8.274-4.776-8.274-4.777-8.274 4.777zM-267.3 31.6l8.273-4.777-8.274-4.776-8.273 4.776zm-9.547 5.511 8.273-4.776-8.274-4.776-8.273 4.776zm-1.273.736-8.274-4.778-8.273 4.778 8.274 4.776zm1.273 10.288 8.274-4.777-8.274-4.777-8.274 4.777zm-9.547 5.511 8.274-4.776-8.274-4.777-8.273 4.777zm-1.273.736-8.273-4.778-8.274 4.778 8.274 4.776zm9.547 5.512-8.274-4.777-8.273 4.777 8.273 4.776zm9.546 5.511-8.273-4.777-8.273 4.776 8.273 4.778zm9.546 5.511-8.273-4.776-8.273 4.776 8.273 4.776zm9.548 5.512-8.274-4.777-8.273 4.777 8.273 4.776zm9.545 5.511-8.273-4.776-8.273 4.776 8.273 4.777zm9.546 5.512-8.272-4.776-8.273 4.776 8.273 4.777zm9.548 5.512-8.274-4.776-8.274 4.776 8.275 4.777zm9.546 5.512-8.273-4.777-8.274 4.777 8.274 4.776zm9.546 5.511-8.272-4.777-8.274 4.777 8.274 4.777zm9.547 5.512-8.273-4.777-8.273 4.777 8.272 4.776zm1.273.735-8.273 4.776 8.273 4.777 8.274-4.777zm17.82-.735-8.274-4.777-8.272 4.777 8.273 4.776zm1.273.735-8.272 4.776 8.273 4.777 8.273-4.777zm17.82-.735-8.273-4.777-8.273 4.777 8.273 4.776zm1.274.734-8.274 4.777 8.273 4.777 8.274-4.777zm9.546-5.51-8.274 4.776 8.273 4.776 8.273-4.776zm17.819-.736-8.272-4.776-8.274 4.776 8.274 4.776zm1.273.735-8.272 4.777 8.272 4.776 8.274-4.776zm9.547-5.512-8.273 4.777 8.273 4.777 8.273-4.777zm9.546-5.511-8.272 4.777 8.272 4.776 8.273-4.776zm9.547-5.511-8.273 4.776 8.273 4.776 8.273-4.776zm9.546-5.512-8.272 4.776 8.272 4.777 8.273-4.777zm9.547-5.512-8.274 4.776 8.274 4.777 8.273-4.777zm9.546-5.512-8.273 4.777 8.274 4.776 8.272-4.776zm9.548-5.511-8.274 4.776 8.274 4.776 8.272-4.776zm9.546-5.512-8.273 4.776 8.273 4.777 8.272-4.777zm9.545-5.511-8.272 4.777 8.272 4.776 8.274-4.776zm9.547-5.512-8.273 4.777 8.273 4.776 8.274-4.776zm9.547-5.511-8.273 4.776 8.273 4.776 8.273-4.776zm1.274-.736 8.272 4.777 8.274-4.777-8.274-4.776zm-1.275-10.288-8.272 4.777 8.273 4.776 8.273-4.776zm9.547-5.511-8.272 4.776 8.272 4.776 8.274-4.776zm1.274-.736L.001 31.6l8.272-4.777L0 22.047Zm-9.547-5.511 8.273 4.776 8.274-4.776-8.274-4.777zm-9.546-5.512 8.272 4.776 8.274-4.776-8.274-4.777zm-9.547-5.511 8.273 4.776 8.274-4.776-8.274-4.776zm-9.547-5.512 8.273 4.777 8.274-4.777L-38.186 0Zm-9.546-5.511 8.274 4.776 8.272-4.776-8.272-4.777zm-9.547-5.512 8.274 4.776 8.273-4.776-8.273-4.776zm-9.546-5.512 8.273 4.777 8.273-4.777-8.273-4.776zm-9.547-5.512 8.274 4.777 8.273-4.777-8.274-4.776zm-9.546-5.511 8.273 4.776 8.273-4.776-8.273-4.777zm-9.546-5.512 8.273 4.776 8.273-4.776-8.273-4.776zm-1.274-.734 8.274-4.778-8.274-4.776-8.273 4.776zm-17.819.734 8.273 4.776 8.274-4.776-8.275-4.776zm-1.274-.734 8.274-4.778-8.274-4.776-8.272 4.776zm-9.545 5.51 8.272-4.776-8.272-4.776-8.274 4.776zm-17.821.736 8.274 4.776 8.273-4.776-8.273-4.777zm-1.273-.736 8.273-4.776-8.273-4.776-8.274 4.776zm-9.546 5.512 8.273-4.776-8.273-4.777-8.273 4.777zm-9.547 5.512 8.274-4.777-8.274-4.776-8.273 4.776zm-9.546 5.512 8.273-4.777-8.274-4.776-8.272 4.776zm-9.547 5.511 8.274-4.776-8.275-4.776-8.272 4.775zm-9.547 5.512 8.274-4.776-8.274-4.777-8.273 4.777zm-9.545 5.512 8.272-4.777L-210.022 0l-8.273 4.776zm-9.547 5.511 8.273-4.776-8.273-4.777-8.274 4.777zm-9.546 5.512 8.272-4.777-8.273-4.777-8.273 4.777zm-9.547 5.512 8.273-4.777-8.273-4.777-8.274 4.777zm-9.546 5.511 8.273-4.777-8.274-4.776-8.273 4.776zm-9.547 5.511 8.274-4.776-8.274-4.776-8.273 4.776zm-1.273.736-8.274-4.777-8.273 4.777 8.273 4.776zm1.273 10.288 8.274-4.777-8.274-4.776-8.273 4.776zm-9.546 5.511 8.273-4.777-8.273-4.776-8.273 4.777zm-1.274.736-8.273-4.777-8.273 4.777 8.273 4.776zm9.547 5.512-8.274-4.778-8.273 4.778 8.274 4.776zm9.546 5.51-8.273-4.776-8.273 4.776 8.273 4.777zm9.546 5.512-8.273-4.776-8.273 4.776 8.274 4.776zm9.547 5.512-8.273-4.777-8.274 4.777 8.274 4.776zm9.546 5.511-8.272-4.776-8.274 4.776 8.274 4.777zm9.547 5.512-8.273-4.776-8.274 4.776 8.275 4.777zm9.547 5.512-8.273-4.776-8.274 4.776 8.274 4.776zm9.546 5.512-8.274-4.777-8.272 4.776 8.273 4.777zm1.273.734-8.272 4.777 8.272 4.776 8.274-4.776zm17.821-.735-8.273-4.776-8.274 4.777 8.272 4.775zm1.273.735-8.274 4.777 8.273 4.776 8.274-4.776zm17.818-.734-8.273-4.777-8.273 4.777 8.273 4.776zm1.274.734-8.274 4.777 8.274 4.777 8.273-4.777zm9.547-5.511-8.273 4.776 8.273 4.777 8.273-4.776zm17.819-.735-8.272-4.776-8.274 4.776 8.274 4.776zm1.273.735-8.272 4.777 8.272 4.776 8.274-4.777zm9.547-5.511-8.273 4.776 8.272 4.776 8.274-4.776zm9.546-5.512-8.272 4.776 8.272 4.777 8.274-4.777zm9.547-5.512-8.273 4.776 8.273 4.777 8.273-4.777zm9.546-5.512-8.272 4.777 8.272 4.776 8.273-4.776zm9.547-5.511-8.273 4.776 8.273 4.776 8.272-4.776zm9.547-5.512-8.274 4.776 8.274 4.777 8.272-4.777zm9.546-5.511-8.273 4.776 8.274 4.776 8.272-4.775zm9.547-5.512-8.274 4.777 8.274 4.776 8.272-4.776zm9.546-5.511-8.273 4.776 8.272 4.776 8.274-4.776zm1.273-.736 8.273 4.777 8.274-4.777-8.274-4.776zm-1.274-10.288-8.272 4.777 8.273 4.776 8.273-4.776zm9.547-5.511-8.273 4.776 8.273 4.776 8.274-4.776zm1.274-.736 8.273 4.777 8.273-4.777-8.274-4.776zm-9.547-5.511 8.273 4.776 8.274-4.776-8.274-4.777zm-9.546-5.512 8.273 4.776 8.273-4.776-8.273-4.777zm-9.547-5.512 8.274 4.777 8.273-4.776-8.273-4.777zm-9.546-5.512 8.273 4.778 8.273-4.777L-57.278 0Zm-9.547-5.511 8.274 4.777 8.272-4.776-8.273-4.778zm-9.547-5.511 8.274 4.776 8.273-4.776-8.273-4.776zm-9.546-5.512 8.273 4.777 8.273-4.777-8.273-4.776zm-9.546-5.512 8.273 4.777 8.274-4.777-8.274-4.776zm-1.274-.735 8.274-4.776-8.274-4.777-8.273 4.777zm-17.819.735 8.273 4.777 8.273-4.777-8.274-4.776zm-1.274-.735 8.274-4.776-8.274-4.777-8.273 4.777zm-9.546 5.512 8.273-4.777-8.273-4.776-8.273 4.776zm-17.82.735 8.274 4.777 8.273-4.777-8.273-4.776zm-1.273-.735 8.273-4.777-8.272-4.776-8.274 4.776zm-9.546 5.512 8.273-4.777-8.273-4.776-8.273 4.776zm-9.546 5.511 8.273-4.776-8.274-4.776-8.272 4.776zm-9.547 5.512 8.273-4.776-8.273-4.777-8.273 4.777zm-9.547 5.512 8.274-4.777-8.274-4.776-8.273 4.776zm-9.546 5.511 8.273-4.776-8.274-4.776-8.272 4.776zm-9.546 5.512 8.273-4.777-8.273-4.777-8.274 4.778zm-9.547 5.512 8.273-4.777-8.273-4.777-8.273 4.777zm-9.546 5.511 8.272-4.777-8.272-4.776-8.274 4.776zm-9.547 5.511 8.273-4.776-8.272-4.776-8.275 4.776zm-1.274.736-8.272-4.777-8.273 4.777 8.273 4.776zm1.274 10.288 8.273-4.777-8.273-4.776-8.274 4.776zm-9.547 5.511 8.273-4.776-8.273-4.776-8.273 4.776zm-1.272.735-8.273-4.777-8.274 4.778 8.273 4.776zm9.546 5.512-8.273-4.777-8.274 4.777 8.273 4.777zm9.546 5.511-8.273-4.776-8.274 4.776 8.274 4.778zm9.547 5.512-8.273-4.776-8.274 4.776 8.274 4.776zm9.546 5.512-8.272-4.777-8.274 4.777 8.273 4.776zm9.548 5.511-8.274-4.777-8.274 4.777 8.274 4.777zm9.546 5.512-8.274-4.777-8.273 4.777 8.273 4.777zm1.272.735-8.273 4.777 8.273 4.776 8.274-4.776zm17.82-.735-8.274-4.776-8.273 4.776 8.273 4.777zm1.273.736-8.273 4.776 8.273 4.776 8.274-4.776zm17.819-.736-8.272-4.776-8.273 4.776 8.273 4.777zm1.274.736-8.273 4.776 8.274 4.776 8.272-4.776zm9.547-5.512-8.274 4.776 8.274 4.777 8.273-4.777zm17.819-.736-8.273-4.776-8.273 4.776 8.273 4.777zm1.273.736-8.273 4.776 8.273 4.777 8.274-4.777zm9.547-5.512-8.273 4.776 8.273 4.777 8.273-4.777zm9.546-5.512-8.273 4.777 8.273 4.777 8.274-4.777zm9.547-5.511-8.273 4.776 8.273 4.777 8.274-4.777zm9.546-5.512-8.272 4.776 8.273 4.777 8.272-4.776zm9.547-5.512-8.273 4.777 8.273 4.776 8.273-4.775zm9.546-5.511-8.273 4.776 8.274 4.776 8.272-4.775zm9.547-5.511-8.274 4.776 8.274 4.776 8.273-4.776zm1.273-.736 8.274 4.777 8.273-4.777-8.273-4.776zm-1.273-10.288-8.274 4.777 8.274 4.776 8.273-4.776zm9.547-5.511-8.274 4.776 8.274 4.776 8.272-4.776zm1.272-.736 8.273 4.777 8.274-4.777-8.274-4.776zm-9.546-5.511 8.274 4.776 8.272-4.776-8.272-4.777zm-9.547-5.512 8.274 4.777 8.273-4.777-8.273-4.777zm-9.546-5.512 8.274 4.777 8.272-4.776-8.273-4.777zm-9.547-5.512 8.274 4.778 8.273-4.777L-76.372 0Zm-9.545-5.51 8.272 4.776 8.273-4.776-8.273-4.777zm-9.547-5.512 8.273 4.776 8.273-4.776-8.274-4.776zm-1.274-.735 8.274-4.777-8.274-4.776-8.273 4.776zm-17.819.735 8.273 4.776 8.274-4.776-8.274-4.776zm-1.274-.735 8.274-4.777-8.274-4.776-8.273 4.776zm-9.546 5.511 8.273-4.776-8.273-4.776-8.273 4.776zm-17.82.736 8.274 4.776 8.273-4.776-8.273-4.778zm-1.273-.736 8.273-4.776-8.273-4.777-8.274 4.777zm-9.546 5.512 8.272-4.776-8.272-4.778-8.273 4.777zm-9.546 5.511 8.273-4.776L-171.836 0l-8.272 4.776zm-9.548 5.512 8.274-4.776-8.274-4.777-8.272 4.776zm-9.546 5.511 8.273-4.775-8.274-4.778-8.272 4.777zm-9.547 5.513 8.274-4.777-8.274-4.777-8.273 4.777zm-9.545 5.511 8.272-4.777-8.272-4.776-8.274 4.776zm-9.547 5.511 8.273-4.776-8.273-4.776-8.274 4.776zm-1.273.736-8.273-4.777-8.274 4.777 8.274 4.776zm1.273 10.288 8.273-4.777-8.273-4.777-8.274 4.777zm-9.546 5.511 8.272-4.776-8.273-4.776-8.273 4.775zm-1.275.736-8.272-4.777-8.274 4.777 8.274 4.776zm9.547 5.512-8.273-4.778-8.274 4.778 8.274 4.776zm9.547 5.511-8.273-4.777-8.274 4.776 8.274 4.778zm9.546 5.511-8.272-4.775-8.274 4.776 8.273 4.776zm9.547 5.512-8.274-4.777-8.273 4.777 8.273 4.777zm1.273.735-8.273 4.776 8.273 4.777 8.274-4.777zm17.82-.735-8.274-4.777-8.272 4.777 8.273 4.776zm1.273.735-8.272 4.776 8.273 4.777 8.273-4.777zm17.82-.735-8.273-4.777-8.273 4.777 8.273 4.776zm1.274.735-8.274 4.776 8.273 4.777 8.273-4.777zm9.546-5.512-8.274 4.777 8.274 4.776 8.272-4.776zm17.819-.735-8.272-4.776-8.274 4.776 8.273 4.776zm1.273.735-8.273 4.777 8.273 4.776 8.274-4.776zm9.546-5.511-8.272 4.776 8.272 4.777 8.274-4.777zm9.547-5.512-8.273 4.776 8.273 4.778 8.274-4.778zm9.547-5.512-8.273 4.777 8.273 4.776 8.273-4.775zm9.546-5.512-8.272 4.777 8.273 4.776 8.272-4.775zm9.547-5.51-8.273 4.775 8.273 4.777 8.273-4.776zm1.273-.736 8.273 4.777 8.273-4.777-8.273-4.776zm-1.273-10.288-8.274 4.777 8.274 4.776 8.273-4.776zm9.547-5.511-8.274 4.776 8.274 4.776 8.273-4.776zm1.273-.736 8.273 4.777 8.273-4.777-8.273-4.776zm-9.547-5.511 8.274 4.776 8.272-4.776-8.273-4.777zm-9.547-5.512 8.274 4.776 8.273-4.776-8.273-4.777zm-9.546-5.512 8.274 4.777 8.272-4.776-8.273-4.777zm-9.546-5.511 8.273 4.777 8.274-4.777L-95.464 0Zm-1.274-.735 8.274-4.776-8.274-4.778-8.273 4.777zm-17.819.734 8.273 4.778 8.273-4.778L-114.558 0Zm-1.274-.734 8.274-4.776-8.274-4.778-8.273 4.778zm-9.545 5.512 8.272-4.777L-133.65 0l-8.273 4.777zm-17.821.734 8.274 4.777 8.273-4.776-8.273-4.777zm-1.273-.735 8.273-4.776L-152.743 0l-8.273 4.776zm-9.546 5.511 8.272-4.775-8.273-4.777-8.272 4.776zm-9.547 5.512 8.274-4.776-8.274-4.777-8.273 4.777zm-9.546 5.512 8.273-4.776-8.274-4.777-8.272 4.777zm-9.547 5.512 8.274-4.777-8.274-4.776-8.273 4.776zm-9.547 5.511 8.274-4.776-8.274-4.776-8.273 4.776zm-1.273.736-8.272-4.777-8.274 4.777 8.273 4.776zm1.273 10.288 8.274-4.777-8.274-4.776-8.273 4.776zm-9.545 5.511 8.273-4.776-8.273-4.777-8.274 4.777zm-1.274.736-8.273-4.778-8.274 4.777 8.274 4.777zm9.546 5.512-8.273-4.778-8.273 4.777 8.274 4.777zm9.547 5.51-8.274-4.775-8.272 4.775 8.273 4.777zm1.272.736-8.272 4.776 8.274 4.777 8.273-4.776zm17.822-.736-8.275-4.776-8.273 4.776 8.274 4.778zm1.272.736-8.273 4.776 8.273 4.777 8.274-4.777zm17.819-.735-8.273-4.777-8.272 4.776 8.273 4.778zm1.274.735-8.274 4.776 8.274 4.777 8.273-4.777zm9.547-5.512-8.274 4.776 8.274 4.778 8.273-4.778zm17.819-.734-8.273-4.778-8.274 4.778 8.274 4.776zm1.273.734-8.273 4.777 8.273 4.777 8.274-4.778zm9.547-5.511-8.273 4.777 8.272 4.776 8.274-4.776zm9.546-5.512-8.272 4.777 8.272 4.776 8.274-4.776zm9.547-5.511-8.272 4.776 8.272 4.776 8.274-4.776zm1.274-.736 8.273 4.777 8.272-4.777-8.272-4.776zm-1.274-10.288-8.273 4.777 8.273 4.776 8.274-4.776zm9.546-5.511-8.273 4.776 8.273 4.776 8.273-4.776zm1.273-.736 8.274 4.777 8.273-4.777-8.273-4.776zm-9.545-5.511 8.272 4.776 8.273-4.776-8.273-4.777zm-9.547-5.512 8.273 4.777 8.274-4.777-8.274-4.777zm-1.274-.735 8.274-4.777-8.273-4.776-8.273 4.777zm-17.819.735 8.272 4.777 8.274-4.777-8.273-4.777zm-1.274-.735 8.274-4.777-8.274-4.776-8.273 4.776zm-9.545 5.511 8.272-4.776-8.273-4.777-8.273 4.777zm-17.821.736 8.274 4.776 8.273-4.776-8.274-4.777zm-1.272-.736 8.272-4.776-8.273-4.777-8.273 4.777zm-9.547 5.512 8.272-4.776-8.273-4.777-8.272 4.777zm-9.547 5.512 8.274-4.777-8.274-4.776-8.273 4.776zm-9.547 5.511 8.274-4.776-8.274-4.776-8.273 4.776zm-1.272.736-8.274-4.777-8.273 4.777 8.273 4.776zm1.273 10.288 8.273-4.777-8.274-4.776-8.273 4.776zm-9.547 5.511 8.274-4.776-8.275-4.776-8.272 4.776zm-1.273.736-8.274-4.778-8.273 4.777 8.273 4.777zm1.273.734-8.273 4.778 8.273 4.776 8.274-4.777zm17.82-.734-8.273-4.777-8.273 4.777 8.272 4.776zm1.273.734-8.273 4.777 8.273 4.777 8.274-4.776zm17.82-.734-8.274-4.778-8.272 4.777 8.273 4.777zm1.273.734-8.274 4.778 8.274 4.776 8.273-4.776zm9.547-5.512-8.274 4.778 8.274 4.776 8.273-4.776zm17.819-.734-8.273-4.776-8.273 4.776 8.273 4.776zm1.273.734-8.273 4.778 8.273 4.776 8.274-4.776zm9.546-5.51-8.272 4.776 8.273 4.776 8.273-4.776zm1.275-.737 8.273 4.778 8.273-4.777-8.274-4.776zm-1.274-10.287-8.273 4.777 8.273 4.776 8.273-4.776zm9.546-5.511-8.272 4.776 8.273 4.776 8.273-4.776zm1.274-.736 8.273 4.777 8.273-4.777-8.273-4.776zm-1.274-.734 8.274-4.777-8.274-4.777-8.273 4.777zm-17.819.734 8.273 4.777 8.273-4.777-8.274-4.776zm-1.274-.735 8.274-4.776-8.274-4.777-8.272 4.777zm-9.545 5.512 8.272-4.777-8.272-4.776-8.274 4.776zm-17.821.735 8.274 4.776 8.272-4.776-8.272-4.776zm-1.273-.735 8.273-4.777-8.273-4.776-8.274 4.776zm-9.546 5.511 8.272-4.776-8.273-4.776-8.272 4.776zm-1.273.736-8.274-4.777-8.273 4.777 8.273 4.776zm10.819 6.246-8.274 4.777 8.274 4.776 8.273-4.776zm8.273-6.246-8.273-4.777-8.273 4.777 8.273 4.776zm1.273.735-8.273 4.776 8.274 4.777 8.273-4.777zm19.094-1.471 8.273-4.776-8.274-4.776-8.273 4.776zm-8.274 6.247 8.273 4.777 8.274-4.777-8.274-4.776zm7-5.511-8.273-4.777-8.273 4.777 8.274 4.776zm-46.459 6.247-8.272 4.776 8.272 4.776 8.274-4.776zm9.546 4.041 8.273-4.777-8.272-4.776-8.273 4.776zM9.547 5.512l-8.273 4.776 8.274 4.776 8.272-4.775Zm9.547 4.042L31.258 2.53a45.043 45.043 0 0 1-.071 1.511l-10.82 6.248 8.273 4.776.687-.396c-.064.225-.137.45-.203.676l.003.002c-.047.158-.098.316-.146.474-.063.209-.121.417-.187.626l-.006.003c-.016.048-.028.097-.044.146l-.103-.061-8.273 4.777 5.295 3.057c-.181.384-.366.768-.555 1.151l-6.014-3.473-8.273 4.776 8.273 4.777 4.046-2.336a83.502 83.502 0 0 1-1.283 2.211l-1.49.86.713.411c-.225.36-.449.72-.68 1.079l-1.306-.755-8.274 4.777 4.811 2.777c-.259.34-.52.679-.783 1.018l-5.3-3.06-8.274 4.776L9.47 48.09l-.168.186.005-.003c-.036.041-.076.081-.113.123-.197.22-.394.442-.594.663l-.009-.006c-.712.787-1.424 1.573-2.161 2.352l-5.156 2.977 1.429.825c-.312.31-.626.618-.942.926l-1.76-1.016-8.273 4.777 3.682 2.126c-.335.295-.67.592-1.008.887l-3.948-2.279-8.272 4.776 5.462 3.155c-.356.285-.711.57-1.069.853l-5.668-3.271-8.272 4.775 6.805 3.93c-.374.274-.75.548-1.126.82l-6.953-4.015-8.272 4.777 7.736 4.467c-.392.264-.787.526-1.18.789l-7.83-4.521-8.273 4.776 8.262 4.77c-.411.254-.823.508-1.235.759l-8.3-4.793-8.273 4.776 8.38 4.838-1.288.728-8.366-4.83-8.274 4.776 8.099 4.676c-.447.233-.894.465-1.341.695l-8.03-4.636-8.274 4.777 7.417 4.282c-.465.223-.931.445-1.394.665l-7.296-4.213-8.274 4.777 6.323 3.65c-.486.213-.97.425-1.452.633l-6.144-3.547-8.272 4.776 4.778 2.759c-.508.2-1.015.399-1.517.594l-4.535-2.618-8.273 4.776 2.705 1.562c-.54.187-1.072.368-1.6.547l-2.379-1.373-7.916 4.57c-.159.045-.325.087-.485.131l.008.005c-.572.16-1.149.317-1.726.474l-.015-.008c-.861.234-1.712.474-2.586.701l1.901-1.097-8.274-4.776-8.273 4.776 5.662 3.269c-.612.136-1.224.273-1.842.406l-5.092-2.941-8.274 4.777.952.55c-.658.111-1.318.22-1.98.327l-.245-.141-.436.251c-1.15.184-2.306.361-3.469.532l2.631-1.519-8.273-4.776-8.273 4.776 4.721 2.726c-.71.082-1.419.164-2.131.241l-3.863-2.231-5.314 3.067c-.965.073-1.931.141-2.9.204l6.941-4.007-8.273-4.776-8.273 4.777 7.198 4.155c-.777.046-1.557.084-2.336.122l-6.136-3.542-6.688 3.861c-.845.001-1.69.001-2.535-.006l7.95-4.591-8.274-4.776-8.273 4.777 7.934 4.58c-.871-.009-1.742-.019-2.612-.038l-6.596-3.807-5.617 3.243c-.751-.053-1.504-.108-2.254-.169l6.599-3.809-8.273-4.777-12.173 7.028c-.673-.098-1.344-.202-2.016-.307l12.915-7.456-8.273-4.776-17.094 9.869c-.609-.137-1.22-.273-1.827-.416l17.647-10.189-8.272-4.776-20.596 11.891c-.55-.173-1.1-.343-1.646-.52l20.968-12.106-8.273-4.777-22.817 13.174c-.493-.203-.981-.414-1.47-.622l23.014-13.287-8.274-4.777-23.841 13.765c-.445-.232-.89-.464-1.331-.702l23.9-13.797-8.273-4.777-23.772 13.725c-.396-.26-.784-.529-1.175-.793l23.673-13.667-8.274-4.776-22.64 13.07a96.157 96.157 0 0 1-1.049-.864l22.416-12.942-8.273-4.776-20.516 11.845c-.308-.313-.62-.621-.925-.937l20.167-11.644-8.273-4.776-17.433 10.065c-.267-.336-.538-.666-.8-1.008l16.96-9.792-8.273-4.777-13.431 7.754a55.297 55.297 0 0 1-.658-1.09l12.816-7.399-8.273-4.776-8.126 4.692a34.78 34.78 0 0 1-.425-1.226l7.278-4.202-8.274-4.776-.699.403c-.02-.274-.029-.553-.042-.831l-.007-.004c-.005-.09-.004-.18-.008-.269-.004-.109-.013-.215-.016-.323l.008-.004c-.01-.299-.023-.596-.025-.898l.789.456 8.274-4.776-8.09-4.671.057-.245-.003.002c.022-.104.05-.209.074-.312.056-.247.11-.493.171-.742l.006.003c.053-.219.1-.435.157-.655l7.627-4.404-5.17-2.984c.159-.393.322-.789.49-1.187l5.954 3.436 8.273-4.776-8.274-4.777-4.263 2.462c.352-.704.715-1.405 1.097-2.104l1.893-1.093-.96-.555c.213-.364.434-.728.655-1.092l1.579.912 8.274-4.777-5.182-2.991c.257-.34.516-.68.781-1.019l5.673 3.276 8.273-4.777-8.491-4.902c.296-.319.588-.639.889-.958l8.876 5.125 8.273-4.776-11.033-6.37c.326-.301.652-.603.984-.903l11.322 6.537 8.274-4.777-12.91-7.453c.354-.285.706-.57 1.065-.855l13.118 7.574 8.273-4.777-14.198-8.197c.379-.271.756-.543 1.139-.812l14.332 8.274 8.274-4.776-14.957-8.635c.402-.258.805-.516 1.21-.772l15.019 8.671 8.273-4.776-15.227-8.792c.423-.246.85-.489 1.275-.734l15.227 8.791 8.271-4.777-15.04-8.683c.443-.236.888-.468 1.332-.702l14.983 8.65 8.272-4.777-14.422-8.326c.461-.224.921-.449 1.385-.672l14.312 8.263 8.272-4.776-13.392-7.732 1.44-.639 13.226 7.635 8.273-4.776-11.957-6.903c.497-.203.996-.405 1.496-.607l11.733 6.776 8.275-4.778-10.121-5.842c.516-.194 1.034-.383 1.552-.575l9.841 5.683 8.274-4.777-7.875-4.546c.534-.183 1.07-.363 1.606-.543l7.542 4.354 8.274-4.777-5.212-3.009c.553-.171 1.108-.34 1.663-.51l4.821 2.784 8.274-4.776-2.11-1.218c.575-.161 1.151-.316 1.726-.474l1.657.957 4.47-2.581c1.488-.379 2.974-.747 4.459-1.105l-7.657 4.421 8.274 4.776 8.273-4.776-8.013-4.627c.602-.143 1.205-.287 1.807-.427l7.48 4.319 8.273-4.777-3.645-2.105c.637-.122 1.276-.246 1.913-.365l3.006 1.735 5.549-3.204a316.8 316.8 0 0 1 3.465-.531l-7.742 4.47 8.273 4.777 8.273-4.777-7.948-4.589c.684-.098 1.367-.193 2.05-.287l7.171 4.141 8.274-4.776-1.624-.939c.742-.066 1.481-.126 2.22-.187l.677.39.905-.522c.97-.074 1.936-.14 2.901-.204l-2.532 1.462 8.273 4.776 11.881-6.859c.85-.002 1.698-.004 2.542.002l-13.149 7.592 8.272 4.777 20.395-11.775c.751.053 1.498.115 2.244.174l-21.366 12.336 8.274 4.776 26.93-15.547c.674.098 1.349.199 2.018.304l-27.675 15.979 8.273 4.776 31.819-18.37c.606.139 1.201.285 1.801.43l-32.347 18.675 8.274 4.777 35.215-20.331c.542.176 1.081.355 1.617.535l-35.56 20.53 8.275 4.777 37.235-21.498c.484.21.968.421 1.445.635l-37.408 21.598 8.273 4.776L-.244-45.422c.427.244.854.487 1.272.735l-37.94 21.906 8.273 4.776 37.34-21.558c.368.278.738.553 1.1.835L-27.365-17.27l8.272 4.777 35.409-20.444c.309.313.621.623.921.939l-35.056 20.24 8.273 4.777L22.54-25.506c.245.35.495.695.731 1.049L-8.272-6.246.001-1.47l27.266-15.741c.173.39.347.779.513 1.173L1.273-.734l8.274 4.776L30.321-7.952c.094.439.181.88.261 1.32L10.82 4.777Z" style="fill:#de556b;fill-opacity:1;stroke:#709640;stroke-width:.567;stroke-linecap:butt;stroke-linejoin:miter;stroke-miterlimit:22.926;stroke-dasharray:none;stroke-opacity:1" transform="matrix(1.30377 .27922 .27922 -1.30377 755.345 497.367)"/></g><g style="display:inline;fill:#de556b;fill-opacity:1"><path d="m0 0-8.271 4.776L.001 9.553l8.272-4.776Zm-9.546-5.511-8.272 4.776 8.273 4.777 8.273-4.776zm-9.547-5.511-8.272 4.775 8.273 4.777 8.273-4.776zm-9.546-5.512-8.272 4.776 8.272 4.777 8.273-4.777zm-9.547-5.512-8.272 4.775 8.273 4.778 8.273-4.777zm-9.545-5.512-8.274 4.777 8.274 4.776 8.272-4.776zm-9.547-5.511-8.274 4.776 8.275 4.776 8.272-4.776zm-9.547-5.512-8.273 4.776 8.274 4.777 8.272-4.777zm-9.546-5.512-8.274 4.777 8.274 4.776 8.273-4.776zm-9.547-5.511-8.272 4.776 8.273 4.777 8.272-4.776zm-9.546-5.511-8.273 4.776 8.273 4.776 8.273-4.776zm-9.547-5.512-8.273 4.776 8.274 4.777 8.273-4.777zm-17.819 10.288 8.273 4.776 8.273-4.776-8.274-4.777zm-10.82-4.777-8.274 4.777 8.274 4.776 8.273-4.776zm-17.82 10.288 8.274 4.777 8.273-4.777-8.273-4.776zm-10.819-4.776-8.273 4.777 8.273 4.776 8.273-4.776zm-17.82 10.288 8.273 4.777 8.274-4.777-8.274-4.777zm-9.546 5.511 8.273 4.778 8.274-4.778-8.274-4.776zm-9.547 5.512 8.273 4.776 8.274-4.776-8.274-4.776zm-9.546 5.512 8.273 4.776 8.273-4.776-8.274-4.777zm-9.547 5.511 8.274 4.777 8.272-4.777-8.273-4.776zm-9.547 5.512 8.274 4.777 8.273-4.777-8.273-4.776zm-9.546 5.511 8.274 4.777 8.272-4.776-8.273-4.776zm-9.547 5.513 8.274 4.776 8.273-4.776-8.273-4.777zm-9.546 5.511 8.273 4.777 8.273-4.777L-248.208 0Zm-9.546 5.512 8.273 4.776 8.274-4.777-8.274-4.776zm-9.547 5.511 8.273 4.777 8.274-4.777-8.273-4.777zm-9.546 5.512 8.273 4.776 8.273-4.776-8.273-4.777zm-9.547 5.511 8.273 4.777 8.273-4.777-8.273-4.776zm-9.546 5.512 8.273 4.776 8.274-4.776-8.273-4.776zm-.001 11.023 8.274 4.777 8.273-4.777-8.273-4.777zm-9.546 5.512 8.274 4.776 8.273-4.776-8.274-4.776zm0 11.023 8.274 4.777 8.273-4.776-8.273-4.778zm17.821 10.289 8.272-4.778-8.272-4.776-8.273 4.776zm9.545 5.51 8.274-4.776-8.273-4.776-8.274 4.776zm9.547 5.512 8.273-4.776-8.273-4.777-8.273 4.777zm9.547 5.512 8.273-4.777-8.273-4.776-8.274 4.776zm9.546 5.512 8.274-4.777-8.274-4.777-8.273 4.777zm9.546 5.511 8.273-4.776-8.272-4.776-8.273 4.776zm9.548 5.512 8.272-4.776-8.273-4.778-8.274 4.777zm9.546 5.512 8.273-4.777-8.273-4.777-8.274 4.777zm9.546 5.511 8.273-4.776-8.273-4.777-8.274 4.777zm9.546 5.512 8.274-4.777-8.273-4.776-8.274 4.776zm9.546 5.511 8.275-4.776-8.274-4.777-8.274 4.777zm19.094 0 8.273-4.776-8.274-4.776-8.272 4.776zm19.093 0 8.272-4.776-8.272-4.776-8.273 4.776zm19.093 0 8.273-4.776-8.272-4.777-8.275 4.777zm17.819-10.288-8.273-4.776-8.274 4.776 8.274 4.777zm10.82 4.776 8.273-4.776-8.273-4.776-8.273 4.776zm17.82-10.287-8.274-4.777-8.272 4.777 8.272 4.776zm9.546-5.512-8.274-4.776-8.272 4.776 8.273 4.777zm9.546-5.511-8.273-4.777-8.272 4.777 8.272 4.776zm9.547-5.512-8.273-4.776-8.274 4.776 8.274 4.776zm9.546-5.512-8.272-4.776-8.274 4.776 8.273 4.777zm9.547-5.512-8.273-4.776-8.273 4.776 8.274 4.777zm9.547-5.511-8.273-4.777-8.273 4.777 8.273 4.776zm9.546-5.512-8.274-4.776-8.272 4.776 8.273 4.776zm9.546-5.511-8.273-4.776-8.273 4.776 8.273 4.777zm9.548-5.511-8.274-4.778-8.273 4.778 8.273 4.776zm9.546-5.512-8.274-4.777-8.272 4.777 8.272 4.776zm9.545-5.512L.001 44.094l-8.273 4.776 8.273 4.776Zm0-11.023L.001 33.07l-8.273 4.777 8.273 4.776zm9.547-5.512-8.273-4.776-8.273 4.776 8.273 4.776zm0-11.023-8.273-4.777-8.273 4.777 8.274 4.776zm9.547-5.512-8.273-4.777-8.273 4.777 8.274 4.776zm-35.639 0 8.273 4.776L8.273 15.8.001 11.023Zm-9.547-5.512 8.273 4.776 8.274-4.776-8.274-4.776zm-9.546-5.511 8.273 4.777 8.274-4.777-8.274-4.776zm-9.547-5.511 8.273 4.776 8.274-4.776-8.274-4.778zm-9.546-5.512 8.272 4.776 8.274-4.776-8.274-4.776zm-9.547-5.512 8.274 4.777 8.273-4.777-8.274-4.776zm-9.546-5.512 8.273 4.777 8.273-4.777-8.273-4.776zm-9.547-5.511 8.274 4.776 8.272-4.776-8.273-4.777zm-9.547-5.512 8.274 4.776 8.273-4.776-8.273-4.776zm-9.545-5.512 8.272 4.777 8.273-4.777-8.273-4.776zm-9.547-5.511 8.273 4.777 8.274-4.777-8.274-4.777zm-1.273-.735 8.273-4.776-8.274-4.777-8.272 4.777zm-17.82.736 8.273 4.776 8.273-4.777-8.273-4.777zm-1.274-.736 8.274-4.776-8.274-4.777-8.273 4.777zm-9.545 5.512 8.272-4.777-8.273-4.777-8.273 4.777zm-17.821.734 8.274 4.778 8.273-4.778-8.273-4.776zm-1.273-.735 8.273-4.776-8.273-4.777-8.274 4.777zm-9.546 5.512 8.272-4.777-8.272-4.776-8.273 4.776zm-9.547 5.511 8.274-4.776-8.274-4.776-8.273 4.776zm-9.547 5.512 8.274-4.776-8.274-4.777-8.273 4.777zm-9.546 5.512 8.274-4.777-8.274-4.776-8.273 4.776zm-9.546 5.512 8.273-4.777-8.274-4.776-8.272 4.775zm-9.546 5.511 8.272-4.776-8.273-4.776-8.274 4.776zm-9.547 5.512 8.273-4.776-8.273-4.777-8.274 4.776zm-9.547 5.512 8.273-4.777L-229.115 0l-8.274 4.777zm-9.546 5.511 8.273-4.776-8.274-4.777-8.273 4.776zm-9.547 5.512 8.273-4.777-8.273-4.777-8.273 4.777zm-9.546 5.511 8.274-4.776-8.274-4.777-8.274 4.777zM-267.3 31.6l8.273-4.777-8.274-4.776-8.273 4.776zm-9.547 5.511 8.273-4.776-8.274-4.776-8.273 4.776zm-1.273.736-8.274-4.778-8.273 4.778 8.274 4.776zm1.273 10.288 8.274-4.777-8.274-4.777-8.274 4.777zm-9.547 5.511 8.274-4.776-8.274-4.777-8.273 4.777zm-1.273.736-8.273-4.778-8.274 4.778 8.274 4.776zm9.547 5.512-8.274-4.777-8.273 4.777 8.273 4.776zm9.546 5.511-8.273-4.777-8.273 4.776 8.273 4.778zm9.546 5.511-8.273-4.776-8.273 4.776 8.273 4.776zm9.548 5.512-8.274-4.777-8.273 4.777 8.273 4.776zm9.545 5.511-8.273-4.776-8.273 4.776 8.273 4.777zm9.546 5.512-8.272-4.776-8.273 4.776 8.273 4.777zm9.548 5.512-8.274-4.776-8.274 4.776 8.275 4.777zm9.546 5.512-8.273-4.777-8.274 4.777 8.274 4.776zm9.546 5.511-8.272-4.777-8.274 4.777 8.274 4.777zm9.547 5.512-8.273-4.777-8.273 4.777 8.272 4.776zm1.273.735-8.273 4.776 8.273 4.777 8.274-4.777zm17.82-.735-8.274-4.777-8.272 4.777 8.273 4.776zm1.273.735-8.272 4.776 8.273 4.777 8.273-4.777zm17.82-.735-8.273-4.777-8.273 4.777 8.273 4.776zm1.274.734-8.274 4.777 8.273 4.777 8.274-4.777zm9.546-5.51-8.274 4.776 8.273 4.776 8.273-4.776zm17.819-.736-8.272-4.776-8.274 4.776 8.274 4.776zm1.273.735-8.272 4.777 8.272 4.776 8.274-4.776zm9.547-5.512-8.273 4.777 8.273 4.777 8.273-4.777zm9.546-5.511-8.272 4.777 8.272 4.776 8.273-4.776zm9.547-5.511-8.273 4.776 8.273 4.776 8.273-4.776zm9.546-5.512-8.272 4.776 8.272 4.777 8.273-4.777zm9.547-5.512-8.274 4.776 8.274 4.777 8.273-4.777zm9.546-5.512-8.273 4.777 8.274 4.776 8.272-4.776zm9.548-5.511-8.274 4.776 8.274 4.776 8.272-4.776zm9.546-5.512-8.273 4.776 8.273 4.777 8.272-4.777zm9.545-5.511-8.272 4.777 8.272 4.776 8.274-4.776zm9.547-5.512-8.273 4.777 8.273 4.776 8.274-4.776zm9.547-5.511-8.273 4.776 8.273 4.776 8.273-4.776zm1.274-.736 8.272 4.777 8.274-4.777-8.274-4.776zm-1.275-10.288-8.272 4.777 8.273 4.776 8.273-4.776zm9.547-5.511-8.272 4.776 8.272 4.776 8.274-4.776zm1.274-.736L.001 31.6l8.272-4.777L0 22.047Zm-9.547-5.511 8.273 4.776 8.274-4.776-8.274-4.777zm-9.546-5.512 8.272 4.776 8.274-4.776-8.274-4.777zm-9.547-5.511 8.273 4.776 8.274-4.776-8.274-4.776zm-9.547-5.512 8.273 4.777 8.274-4.777L-38.186 0Zm-9.546-5.511 8.274 4.776 8.272-4.776-8.272-4.777zm-9.547-5.512 8.274 4.776 8.273-4.776-8.273-4.776zm-9.546-5.512 8.273 4.777 8.273-4.777-8.273-4.776zm-9.547-5.512 8.274 4.777 8.273-4.777-8.274-4.776zm-9.546-5.511 8.273 4.776 8.273-4.776-8.273-4.777zm-9.546-5.512 8.273 4.776 8.273-4.776-8.273-4.776zm-1.274-.734 8.274-4.778-8.274-4.776-8.273 4.776zm-17.819.734 8.273 4.776 8.274-4.776-8.275-4.776zm-1.274-.734 8.274-4.778-8.274-4.776-8.272 4.776zm-9.545 5.51 8.272-4.776-8.272-4.776-8.274 4.776zm-17.821.736 8.274 4.776 8.273-4.776-8.273-4.777zm-1.273-.736 8.273-4.776-8.273-4.776-8.274 4.776zm-9.546 5.512 8.273-4.776-8.273-4.777-8.273 4.777zm-9.547 5.512 8.274-4.777-8.274-4.776-8.273 4.776zm-9.546 5.512 8.273-4.777-8.274-4.776-8.272 4.776zm-9.547 5.511 8.274-4.776-8.275-4.776-8.272 4.775zm-9.547 5.512 8.274-4.776-8.274-4.777-8.273 4.777zm-9.545 5.512 8.272-4.777L-210.022 0l-8.273 4.776zm-9.547 5.511 8.273-4.776-8.273-4.777-8.274 4.777zm-9.546 5.512 8.272-4.777-8.273-4.777-8.273 4.777zm-9.547 5.512 8.273-4.777-8.273-4.777-8.274 4.777zm-9.546 5.511 8.273-4.777-8.274-4.776-8.273 4.776zm-9.547 5.511 8.274-4.776-8.274-4.776-8.273 4.776zm-1.273.736-8.274-4.777-8.273 4.777 8.273 4.776zm1.273 10.288 8.274-4.777-8.274-4.776-8.273 4.776zm-9.546 5.511 8.273-4.777-8.273-4.776-8.273 4.777zm-1.274.736-8.273-4.777-8.273 4.777 8.273 4.776zm9.547 5.512-8.274-4.778-8.273 4.778 8.274 4.776zm9.546 5.51-8.273-4.776-8.273 4.776 8.273 4.777zm9.546 5.512-8.273-4.776-8.273 4.776 8.274 4.776zm9.547 5.512-8.273-4.777-8.274 4.777 8.274 4.776zm9.546 5.511-8.272-4.776-8.274 4.776 8.274 4.777zm9.547 5.512-8.273-4.776-8.274 4.776 8.275 4.777zm9.547 5.512-8.273-4.776-8.274 4.776 8.274 4.776zm9.546 5.512-8.274-4.777-8.272 4.776 8.273 4.777zm1.273.734-8.272 4.777 8.272 4.776 8.274-4.776zm17.821-.735-8.273-4.776-8.274 4.777 8.272 4.775zm1.273.735-8.274 4.777 8.273 4.776 8.274-4.776zm17.818-.734-8.273-4.777-8.273 4.777 8.273 4.776zm1.274.734-8.274 4.777 8.274 4.777 8.273-4.777zm9.547-5.511-8.273 4.776 8.273 4.777 8.273-4.776zm17.819-.735-8.272-4.776-8.274 4.776 8.274 4.776zm1.273.735-8.272 4.777 8.272 4.776 8.274-4.777zm9.547-5.511-8.273 4.776 8.272 4.776 8.274-4.776zm9.546-5.512-8.272 4.776 8.272 4.777 8.274-4.777zm9.547-5.512-8.273 4.776 8.273 4.777 8.273-4.777zm9.546-5.512-8.272 4.777 8.272 4.776 8.273-4.776zm9.547-5.511-8.273 4.776 8.273 4.776 8.272-4.776zm9.547-5.512-8.274 4.776 8.274 4.777 8.272-4.777zm9.546-5.511-8.273 4.776 8.274 4.776 8.272-4.775zm9.547-5.512-8.274 4.777 8.274 4.776 8.272-4.776zm9.546-5.511-8.273 4.776 8.272 4.776 8.274-4.776zm1.273-.736 8.273 4.777 8.274-4.777-8.274-4.776zm-1.274-10.288-8.272 4.777 8.273 4.776 8.273-4.776zm9.547-5.511-8.273 4.776 8.273 4.776 8.274-4.776zm1.274-.736 8.273 4.777 8.273-4.777-8.274-4.776zm-9.547-5.511 8.273 4.776 8.274-4.776-8.274-4.777zm-9.546-5.512 8.273 4.776 8.273-4.776-8.273-4.777zm-9.547-5.512 8.274 4.777 8.273-4.776-8.273-4.777zm-9.546-5.512 8.273 4.778 8.273-4.777L-57.278 0Zm-9.547-5.511 8.274 4.777 8.272-4.776-8.273-4.778zm-9.547-5.511 8.274 4.776 8.273-4.776-8.273-4.776zm-9.546-5.512 8.273 4.777 8.273-4.777-8.273-4.776zm-9.546-5.512 8.273 4.777 8.274-4.777-8.274-4.776zm-1.274-.735 8.274-4.776-8.274-4.777-8.273 4.777zm-17.819.735 8.273 4.777 8.273-4.777-8.274-4.776zm-1.274-.735 8.274-4.776-8.274-4.777-8.273 4.777zm-9.546 5.512 8.273-4.777-8.273-4.776-8.273 4.776zm-17.82.735 8.274 4.777 8.273-4.777-8.273-4.776zm-1.273-.735 8.273-4.777-8.272-4.776-8.274 4.776zm-9.546 5.512 8.273-4.777-8.273-4.776-8.273 4.776zm-9.546 5.511 8.273-4.776-8.274-4.776-8.272 4.776zm-9.547 5.512 8.273-4.776-8.273-4.777-8.273 4.777zm-9.547 5.512 8.274-4.777-8.274-4.776-8.273 4.776zm-9.546 5.511 8.273-4.776-8.274-4.776-8.272 4.776zm-9.546 5.512 8.273-4.777-8.273-4.777-8.274 4.778zm-9.547 5.512 8.273-4.777-8.273-4.777-8.273 4.777zm-9.546 5.511 8.272-4.777-8.272-4.776-8.274 4.776zm-9.547 5.511 8.273-4.776-8.272-4.776-8.275 4.776zm-1.274.736-8.272-4.777-8.273 4.777 8.273 4.776zm1.274 10.288 8.273-4.777-8.273-4.776-8.274 4.776zm-9.547 5.511 8.273-4.776-8.273-4.776-8.273 4.776zm-1.272.735-8.273-4.777-8.274 4.778 8.273 4.776zm9.546 5.512-8.273-4.777-8.274 4.777 8.273 4.777zm9.546 5.511-8.273-4.776-8.274 4.776 8.274 4.778zm9.547 5.512-8.273-4.776-8.274 4.776 8.274 4.776zm9.546 5.512-8.272-4.777-8.274 4.777 8.273 4.776zm9.548 5.511-8.274-4.777-8.274 4.777 8.274 4.777zm9.546 5.512-8.274-4.777-8.273 4.777 8.273 4.777zm1.272.735-8.273 4.777 8.273 4.776 8.274-4.776zm17.82-.735-8.274-4.776-8.273 4.776 8.273 4.777zm1.273.736-8.273 4.776 8.273 4.776 8.274-4.776zm17.819-.736-8.272-4.776-8.273 4.776 8.273 4.777zm1.274.736-8.273 4.776 8.274 4.776 8.272-4.776zm9.547-5.512-8.274 4.776 8.274 4.777 8.273-4.777zm17.819-.736-8.273-4.776-8.273 4.776 8.273 4.777zm1.273.736-8.273 4.776 8.273 4.777 8.274-4.777zm9.547-5.512-8.273 4.776 8.273 4.777 8.273-4.777zm9.546-5.512-8.273 4.777 8.273 4.777 8.274-4.777zm9.547-5.511-8.273 4.776 8.273 4.777 8.274-4.777zm9.546-5.512-8.272 4.776 8.273 4.777 8.272-4.776zm9.547-5.512-8.273 4.777 8.273 4.776 8.273-4.775zm9.546-5.511-8.273 4.776 8.274 4.776 8.272-4.775zm9.547-5.511-8.274 4.776 8.274 4.776 8.273-4.776zm1.273-.736 8.274 4.777 8.273-4.777-8.273-4.776zm-1.273-10.288-8.274 4.777 8.274 4.776 8.273-4.776zm9.547-5.511-8.274 4.776 8.274 4.776 8.272-4.776zm1.272-.736 8.273 4.777 8.274-4.777-8.274-4.776zm-9.546-5.511 8.274 4.776 8.272-4.776-8.272-4.777zm-9.547-5.512 8.274 4.777 8.273-4.777-8.273-4.777zm-9.546-5.512 8.274 4.777 8.272-4.776-8.273-4.777zm-9.547-5.512 8.274 4.778 8.273-4.777L-76.372 0Zm-9.545-5.51 8.272 4.776 8.273-4.776-8.273-4.777zm-9.547-5.512 8.273 4.776 8.273-4.776-8.274-4.776zm-1.274-.735 8.274-4.777-8.274-4.776-8.273 4.776zm-17.819.735 8.273 4.776 8.274-4.776-8.274-4.776zm-1.274-.735 8.274-4.777-8.274-4.776-8.273 4.776zm-9.546 5.511 8.273-4.776-8.273-4.776-8.273 4.776zm-17.82.736 8.274 4.776 8.273-4.776-8.273-4.778zm-1.273-.736 8.273-4.776-8.273-4.777-8.274 4.777zm-9.546 5.512 8.272-4.776-8.272-4.778-8.273 4.777zm-9.546 5.511 8.273-4.776L-171.836 0l-8.272 4.776zm-9.548 5.512 8.274-4.776-8.274-4.777-8.272 4.776zm-9.546 5.511 8.273-4.775-8.274-4.778-8.272 4.777zm-9.547 5.513 8.274-4.777-8.274-4.777-8.273 4.777zm-9.545 5.511 8.272-4.777-8.272-4.776-8.274 4.776zm-9.547 5.511 8.273-4.776-8.273-4.776-8.274 4.776zm-1.273.736-8.273-4.777-8.274 4.777 8.274 4.776zm1.273 10.288 8.273-4.777-8.273-4.777-8.274 4.777zm-9.546 5.511 8.272-4.776-8.273-4.776-8.273 4.775zm-1.275.736-8.272-4.777-8.274 4.777 8.274 4.776zm9.547 5.512-8.273-4.778-8.274 4.778 8.274 4.776zm9.547 5.511-8.273-4.777-8.274 4.776 8.274 4.778zm9.546 5.511-8.272-4.775-8.274 4.776 8.273 4.776zm9.547 5.512-8.274-4.777-8.273 4.777 8.273 4.777zm1.273.735-8.273 4.776 8.273 4.777 8.274-4.777zm17.82-.735-8.274-4.777-8.272 4.777 8.273 4.776zm1.273.735-8.272 4.776 8.273 4.777 8.273-4.777zm17.82-.735-8.273-4.777-8.273 4.777 8.273 4.776zm1.274.735-8.274 4.776 8.273 4.777 8.273-4.777zm9.546-5.512-8.274 4.777 8.274 4.776 8.272-4.776zm17.819-.735-8.272-4.776-8.274 4.776 8.273 4.776zm1.273.735-8.273 4.777 8.273 4.776 8.274-4.776zm9.546-5.511-8.272 4.776 8.272 4.777 8.274-4.777zm9.547-5.512-8.273 4.776 8.273 4.778 8.274-4.778zm9.547-5.512-8.273 4.777 8.273 4.776 8.273-4.775zm9.546-5.512-8.272 4.777 8.273 4.776 8.272-4.775zm9.547-5.51-8.273 4.775 8.273 4.777 8.273-4.776zm1.273-.736 8.273 4.777 8.273-4.777-8.273-4.776zm-1.273-10.288-8.274 4.777 8.274 4.776 8.273-4.776zm9.547-5.511-8.274 4.776 8.274 4.776 8.273-4.776zm1.273-.736 8.273 4.777 8.273-4.777-8.273-4.776zm-9.547-5.511 8.274 4.776 8.272-4.776-8.273-4.777zm-9.547-5.512 8.274 4.776 8.273-4.776-8.273-4.777zm-9.546-5.512 8.274 4.777 8.272-4.776-8.273-4.777zm-9.546-5.511 8.273 4.777 8.274-4.777L-95.464 0Zm-1.274-.735 8.274-4.776-8.274-4.778-8.273 4.777zm-17.819.734 8.273 4.778 8.273-4.778L-114.558 0Zm-1.274-.734 8.274-4.776-8.274-4.778-8.273 4.778zm-9.545 5.512 8.272-4.777L-133.65 0l-8.273 4.777zm-17.821.734 8.274 4.777 8.273-4.776-8.273-4.777zm-1.273-.735 8.273-4.776L-152.743 0l-8.273 4.776zm-9.546 5.511 8.272-4.775-8.273-4.777-8.272 4.776zm-9.547 5.512 8.274-4.776-8.274-4.777-8.273 4.777zm-9.546 5.512 8.273-4.776-8.274-4.777-8.272 4.777zm-9.547 5.512 8.274-4.777-8.274-4.776-8.273 4.776zm-9.547 5.511 8.274-4.776-8.274-4.776-8.273 4.776zm-1.273.736-8.272-4.777-8.274 4.777 8.273 4.776zm1.273 10.288 8.274-4.777-8.274-4.776-8.273 4.776zm-9.545 5.511 8.273-4.776-8.273-4.777-8.274 4.777zm-1.274.736-8.273-4.778-8.274 4.777 8.274 4.777zm9.546 5.512-8.273-4.778-8.273 4.777 8.274 4.777zm9.547 5.51-8.274-4.775-8.272 4.775 8.273 4.777zm1.272.736-8.272 4.776 8.274 4.777 8.273-4.776zm17.822-.736-8.275-4.776-8.273 4.776 8.274 4.778zm1.272.736-8.273 4.776 8.273 4.777 8.274-4.777zm17.819-.735-8.273-4.777-8.272 4.776 8.273 4.778zm1.274.735-8.274 4.776 8.274 4.777 8.273-4.777zm9.547-5.512-8.274 4.776 8.274 4.778 8.273-4.778zm17.819-.734-8.273-4.778-8.274 4.778 8.274 4.776zm1.273.734-8.273 4.777 8.273 4.777 8.274-4.778zm9.547-5.511-8.273 4.777 8.272 4.776 8.274-4.776zm9.546-5.512-8.272 4.777 8.272 4.776 8.274-4.776zm9.547-5.511-8.272 4.776 8.272 4.776 8.274-4.776zm1.274-.736 8.273 4.777 8.272-4.777-8.272-4.776zm-1.274-10.288-8.273 4.777 8.273 4.776 8.274-4.776zm9.546-5.511-8.273 4.776 8.273 4.776 8.273-4.776zm1.273-.736 8.274 4.777 8.273-4.777-8.273-4.776zm-9.545-5.511 8.272 4.776 8.273-4.776-8.273-4.777zm-9.547-5.512 8.273 4.777 8.274-4.777-8.274-4.777zm-1.274-.735 8.274-4.777-8.273-4.776-8.273 4.777zm-17.819.735 8.272 4.777 8.274-4.777-8.273-4.777zm-1.274-.735 8.274-4.777-8.274-4.776-8.273 4.776zm-9.545 5.511 8.272-4.776-8.273-4.777-8.273 4.777zm-17.821.736 8.274 4.776 8.273-4.776-8.274-4.777zm-1.272-.736 8.272-4.776-8.273-4.777-8.273 4.777zm-9.547 5.512 8.272-4.776-8.273-4.777-8.272 4.777zm-9.547 5.512 8.274-4.777-8.274-4.776-8.273 4.776zm-9.547 5.511 8.274-4.776-8.274-4.776-8.273 4.776zm-1.272.736-8.274-4.777-8.273 4.777 8.273 4.776zm1.273 10.288 8.273-4.777-8.274-4.776-8.273 4.776zm-9.547 5.511 8.274-4.776-8.275-4.776-8.272 4.776zm-1.273.736-8.274-4.778-8.273 4.777 8.273 4.777zm1.273.734-8.273 4.778 8.273 4.776 8.274-4.777zm17.82-.734-8.273-4.777-8.273 4.777 8.272 4.776zm1.273.734-8.273 4.777 8.273 4.777 8.274-4.776zm17.82-.734-8.274-4.778-8.272 4.777 8.273 4.777zm1.273.734-8.274 4.778 8.274 4.776 8.273-4.776zm9.547-5.512-8.274 4.778 8.274 4.776 8.273-4.776zm17.819-.734-8.273-4.776-8.273 4.776 8.273 4.776zm1.273.734-8.273 4.778 8.273 4.776 8.274-4.776zm9.546-5.51-8.272 4.776 8.273 4.776 8.273-4.776zm1.275-.737 8.273 4.778 8.273-4.777-8.274-4.776zm-1.274-10.287-8.273 4.777 8.273 4.776 8.273-4.776zm9.546-5.511-8.272 4.776 8.273 4.776 8.273-4.776zm1.274-.736 8.273 4.777 8.273-4.777-8.273-4.776zm-1.274-.734 8.274-4.777-8.274-4.777-8.273 4.777zm-17.819.734 8.273 4.777 8.273-4.777-8.274-4.776zm-1.274-.735 8.274-4.776-8.274-4.777-8.272 4.777zm-9.545 5.512 8.272-4.777-8.272-4.776-8.274 4.776zm-17.821.735 8.274 4.776 8.272-4.776-8.272-4.776zm-1.273-.735 8.273-4.777-8.273-4.776-8.274 4.776zm-9.546 5.511 8.272-4.776-8.273-4.776-8.272 4.776zm-1.273.736-8.274-4.777-8.273 4.777 8.273 4.776zm10.819 6.246-8.274 4.777 8.274 4.776 8.273-4.776zm8.273-6.246-8.273-4.777-8.273 4.777 8.273 4.776zm1.273.735-8.273 4.776 8.274 4.777 8.273-4.777zm19.094-1.471 8.273-4.776-8.274-4.776-8.273 4.776zm-8.274 6.247 8.273 4.777 8.274-4.777-8.274-4.776zm7-5.511-8.273-4.777-8.273 4.777 8.274 4.776zm-46.459 6.247-8.272 4.776 8.272 4.776 8.274-4.776zm9.546 4.041 8.273-4.777-8.272-4.776-8.273 4.776zM9.547 5.512l-8.273 4.776 8.274 4.776 8.272-4.775Zm9.547 4.042L31.258 2.53a45.043 45.043 0 0 1-.071 1.511l-10.82 6.248 8.273 4.776.687-.396c-.064.225-.137.45-.203.676l.003.002c-.047.158-.098.316-.146.474-.063.209-.121.417-.187.626l-.006.003c-.016.048-.028.097-.044.146l-.103-.061-8.273 4.777 5.295 3.057c-.181.384-.366.768-.555 1.151l-6.014-3.473-8.273 4.776 8.273 4.777 4.046-2.336a83.502 83.502 0 0 1-1.283 2.211l-1.49.86.713.411c-.225.36-.449.72-.68 1.079l-1.306-.755-8.274 4.777 4.811 2.777c-.259.34-.52.679-.783 1.018l-5.3-3.06-8.274 4.776L9.47 48.09l-.168.186.005-.003c-.036.041-.076.081-.113.123-.197.22-.394.442-.594.663l-.009-.006c-.712.787-1.424 1.573-2.161 2.352l-5.156 2.977 1.429.825c-.312.31-.626.618-.942.926l-1.76-1.016-8.273 4.777 3.682 2.126c-.335.295-.67.592-1.008.887l-3.948-2.279-8.272 4.776 5.462 3.155c-.356.285-.711.57-1.069.853l-5.668-3.271-8.272 4.775 6.805 3.93c-.374.274-.75.548-1.126.82l-6.953-4.015-8.272 4.777 7.736 4.467c-.392.264-.787.526-1.18.789l-7.83-4.521-8.273 4.776 8.262 4.77c-.411.254-.823.508-1.235.759l-8.3-4.793-8.273 4.776 8.38 4.838-1.288.728-8.366-4.83-8.274 4.776 8.099 4.676c-.447.233-.894.465-1.341.695l-8.03-4.636-8.274 4.777 7.417 4.282c-.465.223-.931.445-1.394.665l-7.296-4.213-8.274 4.777 6.323 3.65c-.486.213-.97.425-1.452.633l-6.144-3.547-8.272 4.776 4.778 2.759c-.508.2-1.015.399-1.517.594l-4.535-2.618-8.273 4.776 2.705 1.562c-.54.187-1.072.368-1.6.547l-2.379-1.373-7.916 4.57c-.159.045-.325.087-.485.131l.008.005c-.572.16-1.149.317-1.726.474l-.015-.008c-.861.234-1.712.474-2.586.701l1.901-1.097-8.274-4.776-8.273 4.776 5.662 3.269c-.612.136-1.224.273-1.842.406l-5.092-2.941-8.274 4.777.952.55c-.658.111-1.318.22-1.98.327l-.245-.141-.436.251c-1.15.184-2.306.361-3.469.532l2.631-1.519-8.273-4.776-8.273 4.776 4.721 2.726c-.71.082-1.419.164-2.131.241l-3.863-2.231-5.314 3.067c-.965.073-1.931.141-2.9.204l6.941-4.007-8.273-4.776-8.273 4.777 7.198 4.155c-.777.046-1.557.084-2.336.122l-6.136-3.542-6.688 3.861c-.845.001-1.69.001-2.535-.006l7.95-4.591-8.274-4.776-8.273 4.777 7.934 4.58c-.871-.009-1.742-.019-2.612-.038l-6.596-3.807-5.617 3.243c-.751-.053-1.504-.108-2.254-.169l6.599-3.809-8.273-4.777-12.173 7.028c-.673-.098-1.344-.202-2.016-.307l12.915-7.456-8.273-4.776-17.094 9.869c-.609-.137-1.22-.273-1.827-.416l17.647-10.189-8.272-4.776-20.596 11.891c-.55-.173-1.1-.343-1.646-.52l20.968-12.106-8.273-4.777-22.817 13.174c-.493-.203-.981-.414-1.47-.622l23.014-13.287-8.274-4.777-23.841 13.765c-.445-.232-.89-.464-1.331-.702l23.9-13.797-8.273-4.777-23.772 13.725c-.396-.26-.784-.529-1.175-.793l23.673-13.667-8.274-4.776-22.64 13.07a96.157 96.157 0 0 1-1.049-.864l22.416-12.942-8.273-4.776-20.516 11.845c-.308-.313-.62-.621-.925-.937l20.167-11.644-8.273-4.776-17.433 10.065c-.267-.336-.538-.666-.8-1.008l16.96-9.792-8.273-4.777-13.431 7.754a55.297 55.297 0 0 1-.658-1.09l12.816-7.399-8.273-4.776-8.126 4.692a34.78 34.78 0 0 1-.425-1.226l7.278-4.202-8.274-4.776-.699.403c-.02-.274-.029-.553-.042-.831l-.007-.004c-.005-.09-.004-.18-.008-.269-.004-.109-.013-.215-.016-.323l.008-.004c-.01-.299-.023-.596-.025-.898l.789.456 8.274-4.776-8.09-4.671.057-.245-.003.002c.022-.104.05-.209.074-.312.056-.247.11-.493.171-.742l.006.003c.053-.219.1-.435.157-.655l7.627-4.404-5.17-2.984c.159-.393.322-.789.49-1.187l5.954 3.436 8.273-4.776-8.274-4.777-4.263 2.462c.352-.704.715-1.405 1.097-2.104l1.893-1.093-.96-.555c.213-.364.434-.728.655-1.092l1.579.912 8.274-4.777-5.182-2.991c.257-.34.516-.68.781-1.019l5.673 3.276 8.273-4.777-8.491-4.902c.296-.319.588-.639.889-.958l8.876 5.125 8.273-4.776-11.033-6.37c.326-.301.652-.603.984-.903l11.322 6.537 8.274-4.777-12.91-7.453c.354-.285.706-.57 1.065-.855l13.118 7.574 8.273-4.777-14.198-8.197c.379-.271.756-.543 1.139-.812l14.332 8.274 8.274-4.776-14.957-8.635c.402-.258.805-.516 1.21-.772l15.019 8.671 8.273-4.776-15.227-8.792c.423-.246.85-.489 1.275-.734l15.227 8.791 8.271-4.777-15.04-8.683c.443-.236.888-.468 1.332-.702l14.983 8.65 8.272-4.777-14.422-8.326c.461-.224.921-.449 1.385-.672l14.312 8.263 8.272-4.776-13.392-7.732 1.44-.639 13.226 7.635 8.273-4.776-11.957-6.903c.497-.203.996-.405 1.496-.607l11.733 6.776 8.275-4.778-10.121-5.842c.516-.194 1.034-.383 1.552-.575l9.841 5.683 8.274-4.777-7.875-4.546c.534-.183 1.07-.363 1.606-.543l7.542 4.354 8.274-4.777-5.212-3.009c.553-.171 1.108-.34 1.663-.51l4.821 2.784 8.274-4.776-2.11-1.218c.575-.161 1.151-.316 1.726-.474l1.657.957 4.47-2.581c1.488-.379 2.974-.747 4.459-1.105l-7.657 4.421 8.274 4.776 8.273-4.776-8.013-4.627c.602-.143 1.205-.287 1.807-.427l7.48 4.319 8.273-4.777-3.645-2.105c.637-.122 1.276-.246 1.913-.365l3.006 1.735 5.549-3.204a316.8 316.8 0 0 1 3.465-.531l-7.742 4.47 8.273 4.777 8.273-4.777-7.948-4.589c.684-.098 1.367-.193 2.05-.287l7.171 4.141 8.274-4.776-1.624-.939c.742-.066 1.481-.126 2.22-.187l.677.39.905-.522c.97-.074 1.936-.14 2.901-.204l-2.532 1.462 8.273 4.776 11.881-6.859c.85-.002 1.698-.004 2.542.002l-13.149 7.592 8.272 4.777 20.395-11.775c.751.053 1.498.115 2.244.174l-21.366 12.336 8.274 4.776 26.93-15.547c.674.098 1.349.199 2.018.304l-27.675 15.979 8.273 4.776 31.819-18.37c.606.139 1.201.285 1.801.43l-32.347 18.675 8.274 4.777 35.215-20.331c.542.176 1.081.355 1.617.535l-35.56 20.53 8.275 4.777 37.235-21.498c.484.21.968.421 1.445.635l-37.408 21.598 8.273 4.776L-.244-45.422c.427.244.854.487 1.272.735l-37.94 21.906 8.273 4.776 37.34-21.558c.368.278.738.553 1.1.835L-27.365-17.27l8.272 4.777 35.409-20.444c.309.313.621.623.921.939l-35.056 20.24 8.273 4.777L22.54-25.506c.245.35.495.695.731 1.049L-8.272-6.246.001-1.47l27.266-15.741c.173.39.347.779.513 1.173L1.273-.734l8.274 4.776L30.321-7.952c.094.439.181.88.261 1.32L10.82 4.777Z" style="fill:#de556b;fill-opacity:1;fill-rule:nonzero;stroke:none" transform="matrix(1.30377 .27922 .27922 -1.30377 755.345 497.367)"/></g><g style="display:inline;fill:#de556b;fill-opacity:1"><path d="m0 0-.041.034.046-.031zm-9.293-5.364A643.255 643.255 0 0 1-47.535 8.923l13.434 7.756s15.37-13.091 25.698-21.53zm-129.531 37.018c24.234 7.645 47.837 21.96 55.803 47.169a50.29 50.29 0 0 1 2.359 15.698l.002-.003c8.314-30.477 27.632-56.126 35.814-66.032l-22.802-13.165c-23.574 7.041-47.296 12.517-71.176 16.333m41.367 35.168c-4.985-5.581-11.413-10.278-19.049-14.123 7.037 3.891 13.544 8.562 19.049 14.123m-138.395-24.184c-14.946 2.087-30.288 5.091-45.664 8.962l-.004.001c-66.277 17.963-132.275 51.814-149.31 91.687l-.064.149c-4.148 9.769-3.148 21.012 2.585 29.943.097.149.193.299.291.448 38.327 58.645 137.224 57.071 198.497 39.143 19.04-5.57 51.263-18.616 80.308-37.855 29.757-19.709 57.485-45.9 62.327-72.065a43.728 43.728 0 0 0-1.98-10.938c-12.385-39.19-74.019-58.337-146.986-49.475m-98.445 20.266-.016.009.029-.012zm104.776 161.51c6.783-1.984 15.242-4.922 24.63-8.745a267.292 267.292 0 0 1-19.903 6.653 172.477 172.477 0 0 1-7.967 3.012 233.77 233.77 0 0 0 3.24-.92m80.308-37.855a273.955 273.955 0 0 0 5.21-3.538l-.669.442c-5.855 3.878-11.847 7.735-17.947 11.433a282.82 282.82 0 0 0 13.406-8.337M20.858-4.493C-67.459 45.634-67.813 102.214-87.358 132.295c-17.386 26.757-31.905 41.78-58.469 59.375-14.156 9.377-29.298 17.531-44.766 24.528-11.963 5.411-24.594 10.409-37.206 14.099-61.963 18.13-162.04 20.087-203.58-39.068-2.424-3.205-4.535-6.69-6.175-10.584-.018-.044-.033-.088-.052-.132a47.32 47.32 0 0 1-1.996-5.29c-12.171-35.581 6.115-64.096 36.87-87.449 56.85-43.165 158.857-66.103 208.267-64.783v-.002C-125.204 18.194-59.788.759 2.66-26.443l18.198 10.507a365.001 365.001 0 0 0-8.749 6.391z" style="fill:#de556b;fill-opacity:1;fill-rule:evenodd;stroke:none" transform="matrix(1.30377 .27922 .27922 -1.30377 882.453 664.004)"/></g><g style="display:inline"><path d="M0 0a161.367 161.367 0 0 0 9.69 2.778L2.439-1.408Zm-11.663-4.291c3.087 1.295 6.2 2.465 9.316 3.521L.6-2.471-7.107-6.92Zm-10.479-4.972a123.552 123.552 0 0 0 8.377 4.061l4.817-2.78-7.705-4.449zm-9.39-5.602c2.446 1.63 4.942 3.16 7.486 4.577l5.552-3.206-7.706-4.449zm-8.349-6.203a99.6 99.6 0 0 0 6.652 5.058l5.189-2.995-7.707-4.451zm-7.355-6.777a92.825 92.825 0 0 0 5.85 5.521l3.799-2.193-7.706-4.449zm-1.313-1.366 1.416-.818-4.39-2.535a88.635 88.635 0 0 0 2.974 3.353M68.116 26.968l-1.023.016c-34.732.578-96.914-5.262-128.606-50.083-2.51-3.285-4.699-6.875-6.397-10.908-.029-.069-.054-.138-.083-.206a47.698 47.698 0 0 1-1.699-4.413c-1.859-5.257-3.103-10.48-3.695-15.581l-.065-.559 1.625.938v-.001l6.722 3.881v.001l3.375 1.948.038.082c1.028 2.239 2.276 4.472 3.815 6.828 1 1.53 2.05 2.998 3.124 4.436l6.338-3.659 1.839 1.062L-53-35.541l7.706 4.45 6.425-3.709 1.841 1.062-6.426 3.709 7.706 4.449 6.425-3.709 1.84 1.063-6.425 3.709 7.707 4.449 6.425-3.709 1.84 1.063-6.424 3.709 7.706 4.449 6.283-3.627.142-.082 1.839 1.062-6.424 3.709 7.706 4.449 6.424-3.708 1.841 1.062-6.425 3.709 7.707 4.449 6.424-3.709 1.841 1.062-6.425 3.709 7.706 4.45L18.41-1.73l1.839 1.062-6.424 3.709 2.061 1.189c2.872.62 5.704 1.156 8.481 1.623l3.589-2.072 1.84 1.063-2.55 1.472c2.255.346 4.472.65 6.63.91L62.7 23.841h-.032z" style="fill:#fccf82;fill-opacity:1;fill-rule:nonzero;stroke:none" transform="matrix(1.30377 .27922 .27922 -1.30377 459.823 281.4)"/></g><g style="display:inline"><path d="M0 0c-61.273 17.928-160.171 19.501-198.498-39.143-7.538-11.532-10.525-23.929-2.812-41.982l43.507-39.604 53.027-29.337 52.78-11.305c88.034-22.164 174.999-16.009 192.649 29.07 12.908 32.969-22.044 69.077-60.345 94.447C51.262-18.616 19.038-5.57 0 0m167.092-201.637 2.073 4.276 19.286 8.489c.251-.271-28.853 31.059-39.592 70.419l-.002.003a50.254 50.254 0 0 0-2.358-15.697c-8.621-27.282-35.555-41.812-61.785-48.927l33.242-6.059zm28.327 5.344-17.78-10.265c17.049-5.338 32.906-11.131 49.804-18.056l2.081.203c-5.087 3.4-34.105 28.12-34.105 28.118M4.726 9.351c-50.817 20.71-136.277 25.491-184.089-10.57-11.332-8.547-22.872-17.338-28.671-31.107-16.056-38.125 2.519-68.342 34.822-92.87 56.85-43.165 158.857-66.104 208.268-64.784l-.001-.001c69.26-4.795 134.677-22.231 197.125-49.433l18.199 10.507c-80.916 57.238-86.501 108.38-106.79 137.74-8.076 11.688-13.154 22.526-20.756 31.803-9.475 11.559-23.248 20.095-37.984 29.856C70.692-20.132 55.78-10.82 40.313-3.825 28.352 1.585 17.338 5.661 4.726 9.351" style="fill:#b2b2b2;fill-opacity:1;fill-rule:evenodd;stroke:none" transform="matrix(1.30377 .27922 .27922 -1.30377 657.107 318.3)"/></g><g style="display:inline"><path d="M0 0c-61.273 17.927-160.171 19.501-198.498-39.143-7.538-11.531-10.525-23.93-2.812-41.982 17.035-39.875 83.037-73.725 149.314-91.689 91.489-24.797 177.743-6.657 192.649 40.514 10.668 33.759-22.044 69.076-60.345 94.445C51.262-18.616 19.038-5.571 0 0m161.872-209.092 29.48 17.019h.002c-18.616 19.862-34.583 44.62-42.495 73.619l-.002.003a50.254 50.254 0 0 0-2.358-15.697c-9.648-30.532-43.324-45.326-72.19-51.396a202.528 202.528 0 0 0-17.8-2.904l.001-.001c35.467-3.26 70.576-10.253 105.362-20.643m33.547 12.799-26.112-15.075c17.049-5.338 34.022-11.486 50.921-18.411l9.296 5.368a221.7 221.7 0 0 0-34.105 28.12zM1.722 5.884C-61.139 24.276-163.229 26.027-203.63-35.79c-10.225-15.645-10.698-30.472-3.318-47.745 19.327-45.237 91.162-75.97 134.953-89.801a466.457 466.457 0 0 1 18.395-5.396c27.849-7.548 58.68-12.049 88.656-11.248l-.001-.003c69.26-4.794 134.677-22.229 197.125-49.432l18.199 10.508C162.062-178.78 161.708-122.2 142.162-92.119c-17.386 26.757-31.905 41.781-58.469 59.375-14.157 9.377-29.298 17.532-44.765 24.528-11.963 5.411-24.594 10.41-37.206 14.1" style="fill:#fff;fill-opacity:1;fill-rule:evenodd;stroke:none" transform="matrix(1.30377 .27922 .27922 -1.30377 660.302 303.382)"/></g><g style="display:inline"><path d="m0 0-8.273 4.776L0 9.554l8.272-4.778Zm-9.547-5.511-8.272 4.777 8.273 4.776 8.273-4.776zm-9.547-5.511-8.272 4.776 8.273 4.776 8.273-4.776zm-9.546-5.512-8.273 4.776 8.273 4.777 8.274-4.777zm-9.547-5.512-8.273 4.776 8.273 4.777 8.274-4.777zm-9.545-5.512-8.274 4.777 8.274 4.776 8.272-4.776zm-9.547-5.511-8.274 4.776 8.274 4.776 8.273-4.776zm-9.546-5.512-8.274 4.776 8.274 4.777 8.272-4.777zm-9.547-5.512-8.274 4.777 8.274 4.776 8.273-4.776zm-9.547-5.511-8.272 4.776 8.273 4.777 8.272-4.776zm-9.546-5.511-8.273 4.776 8.273 4.776 8.274-4.776zm-9.547-5.512-8.273 4.776 8.273 4.777 8.274-4.777zm-19.092-.001-8.274 4.777 8.274 4.777 8.273-4.777zm-17.821 10.288 8.274 4.777 8.273-4.777-8.273-4.776zm-10.819-4.776-8.273 4.777 8.273 4.776 8.273-4.776zm-17.819 10.288 8.273 4.777 8.273-4.777-8.273-4.776zm-9.547 5.512 8.273 4.777 8.274-4.777-8.274-4.777zm-10.82-4.777-8.273 4.777 8.273 4.777 8.274-4.777zm-17.819 10.288 8.273 4.777 8.273-4.777-8.274-4.776zm-9.547 5.512 8.274 4.776 8.272-4.776-8.273-4.776zm-9.547 5.512 8.274 4.776 8.273-4.776-8.273-4.777zm-9.546 5.511 8.274 4.777 8.272-4.777-8.273-4.776zm-9.547 5.512 8.274 4.777 8.273-4.777-8.273-4.776zm-9.546 5.512 8.274 4.776 8.272-4.776-8.273-4.776zm-9.546 5.512 8.273 4.776 8.274-4.776-8.274-4.778zm-9.547 5.511 8.274 4.777 8.273-4.778L-267.301 0Zm-9.546 5.511 8.273 4.777 8.273-4.776-8.273-4.776zm-.001 11.024 8.274 4.777 8.273-4.777-8.273-4.777zm-9.546 5.511 8.273 4.777 8.274-4.777-8.273-4.776zm0 11.024 8.273 4.776 8.274-4.776-8.274-4.777zm-9.547 5.511 8.274 4.777 8.273-4.777-8.273-4.776zm.001 11.023 8.274 4.777 8.273-4.776-8.274-4.778zm17.82 10.289 8.273-4.776-8.273-4.778-8.273 4.778zm-8.273 6.246 8.272 4.776 8.274-4.776-8.274-4.776zm17.819 10.288 8.273-4.776-8.273-4.777-8.274 4.777zm-8.274 6.247 8.274 4.777 8.273-4.777-8.273-4.776zm17.82 10.289 8.274-4.777-8.274-4.777-8.273 4.777zm9.547 5.511 8.273-4.776-8.273-4.777-8.273 4.777zm9.547 5.512 8.272-4.777-8.273-4.777-8.273 4.777zm9.546 5.511 8.273-4.776-8.273-4.777-8.274 4.777zm19.093 0 8.273-4.776-8.273-4.777-8.274 4.777zm9.547 5.512 8.272-4.777-8.272-4.776-8.274 4.776zm19.092 0 8.274-4.777-8.274-4.777-8.273 4.777zm19.093 0 8.274-4.777-8.274-4.776-8.273 4.776zm19.093 0 8.273-4.777-8.272-4.776-8.274 4.776zm19.094 0 8.273-4.777-8.273-4.777-8.274 4.777zm17.819-10.288-8.273-4.777-8.274 4.777 8.274 4.776zm10.819 4.776 8.274-4.776-8.274-4.777-8.272 4.777zm17.82-10.288-8.273-4.777-8.273 4.777 8.273 4.776zm9.546-5.511-8.273-4.777-8.272 4.777 8.272 4.776zm9.547-5.512-8.273-4.776-8.274 4.776 8.274 4.776zm9.546-5.512-8.272-4.776-8.274 4.777 8.273 4.776zm9.547-5.512-8.273-4.776-8.274 4.776 8.274 4.777zm9.546-5.511-8.272-4.777-8.273 4.777 8.273 4.776zm9.547-5.512-8.273-4.776-8.273 4.776 8.273 4.776zm9.547-5.512-8.274-4.775-8.272 4.775 8.272 4.777zm9.546-5.51-8.274-4.777-8.272 4.777 8.272 4.776zm9.547-5.512-8.274-4.777-8.272 4.777 8.272 4.776zm9.545-5.512L0 44.094l-8.273 4.776L0 53.646Zm9.547-5.512-8.273-4.776-8.273 4.776 8.274 4.777zm0-11.023-8.272-4.776-8.274 4.776 8.274 4.776zm9.546-5.512-8.272-4.776-8.274 4.776 8.274 4.777zm.001-11.023-8.273-4.777-8.274 4.777 8.274 4.776Zm-35.639 0L0 20.576l8.272-4.775-8.273-4.778Zm-9.547-5.512 8.273 4.776 8.273-4.776-8.273-4.776zm-9.546-5.511 8.273 4.777 8.273-4.777-8.274-4.776zm-9.547-5.511 8.273 4.776 8.274-4.776-8.274-4.777zm-9.547-5.512 8.273 4.776 8.274-4.776-8.274-4.776zm-9.546-5.512 8.274 4.777 8.272-4.777-8.273-4.776zm-9.547-5.512 8.274 4.777 8.273-4.777-8.273-4.776zm-9.547-5.511 8.274 4.776 8.273-4.776-8.273-4.777zm-9.546-5.512 8.274 4.777 8.273-4.777-8.273-4.776zm-9.546-5.512 8.273 4.778 8.273-4.778-8.273-4.776zm-9.546-5.511 8.273 4.777 8.274-4.777-8.274-4.777zm-9.547-5.511 8.273 4.776 8.274-4.776-8.274-4.777zm-1.273-.736 8.273-4.776-8.273-4.777-8.273 4.777zm-9.546 5.512 8.273-4.776-8.273-4.777-8.274 4.776zm-17.82.735 8.274 4.777 8.272-4.776-8.273-4.778zm-1.273-.735 8.272-4.777-8.272-4.776-8.274 4.776zm-9.547 5.511 8.273-4.776-8.273-4.777-8.274 4.777zm-9.546 5.512 8.272-4.777-8.272-4.776-8.273 4.776zm-17.82.735 8.273 4.776 8.274-4.776-8.274-4.776zm-1.273-.734 8.274-4.778-8.274-4.776-8.273 4.776zm-9.547 5.51 8.274-4.776-8.274-4.776-8.273 4.776zm-9.546 5.512 8.273-4.776-8.274-4.777-8.272 4.777zm-9.546 5.512 8.272-4.777-8.273-4.776-8.273 4.776zm-9.546 5.512 8.272-4.777-8.273-4.776-8.273 4.776zm-9.548 5.511 8.273-4.776-8.273-4.776-8.274 4.776zm-9.546 5.512 8.273-4.776-8.273-4.777-8.274 4.777zm-9.547 5.512 8.273-4.777L-248.209 0l-8.273 4.777zm-9.546 5.511 8.274-4.777-8.274-4.776-8.273 4.776zm-1.273.736-8.274-4.778-8.273 4.777 8.274 4.776zm1.273 10.287 8.273-4.776-8.273-4.777-8.273 4.777zm-9.547 5.513 8.273-4.778-8.273-4.776-8.273 4.776zm-1.272.734-8.274-4.777-8.274 4.777 8.274 4.776zm1.273 10.288 8.273-4.776-8.273-4.778-8.274 4.778zm-9.547 5.512 8.273-4.777-8.273-4.776-8.274 4.776zm-1.274.735-8.273-4.776-8.273 4.776 8.273 4.776zm9.547 5.512-8.273-4.777-8.273 4.777 8.273 4.776zm1.273 10.288 8.274-4.776-8.274-4.777-8.273 4.777zm-1.273.734-8.273-4.776-8.273 4.776 8.273 4.777zm9.547 5.512-8.273-4.776-8.274 4.776 8.273 4.776zm1.273 10.288 8.274-4.776-8.274-4.777-8.273 4.777zm-1.273.735-8.274-4.776-8.273 4.776 8.274 4.777zm9.547 5.512-8.274-4.776-8.273 4.776 8.273 4.777zm9.545 5.512-8.272-4.776-8.273 4.776 8.272 4.776zm9.547 5.512-8.273-4.777-8.274 4.776 8.274 4.777zm1.273.734-8.273 4.777 8.274 4.777 8.273-4.777zm17.82-.735-8.273-4.776-8.274 4.776 8.274 4.777zm9.547 5.512-8.273-4.777-8.274 4.777 8.274 4.777zm1.273.735-8.273 4.777 8.272 4.776 8.274-4.776zm17.819-.735-8.273-4.776-8.273 4.776 8.273 4.776zm1.273.735-8.272 4.777 8.273 4.776 8.273-4.776zm17.821-.735-8.274-4.777-8.273 4.777 8.273 4.776zm1.273.735-8.273 4.777 8.273 4.776 8.273-4.776zm17.82-.735-8.273-4.777-8.274 4.777 8.274 4.777zm1.274.735-8.274 4.777 8.273 4.776 8.273-4.777zm9.546-5.511-8.274 4.776 8.273 4.777 8.273-4.777zm17.818-.735-8.272-4.777-8.273 4.777 8.273 4.775zm1.274.734-8.273 4.777 8.273 4.776 8.273-4.776zm9.546-5.511-8.272 4.777 8.272 4.776 8.274-4.777zm9.546-5.511-8.272 4.776 8.273 4.776 8.273-4.776zm9.547-5.512-8.272 4.776 8.272 4.777 8.273-4.777zm9.547-5.512-8.274 4.776 8.274 4.777 8.273-4.777zm9.547-5.512-8.274 4.777 8.273 4.776 8.273-4.776zm9.546-5.511-8.273 4.776 8.273 4.776 8.273-4.776zm9.547-5.512-8.273 4.776 8.273 4.777 8.273-4.777zm9.545-5.511-8.272 4.776 8.273 4.776 8.273-4.775zm9.547-5.512-8.273 4.777 8.273 4.776 8.273-4.776zm9.547-5.511-8.273 4.776 8.273 4.776 8.273-4.776zm9.546-5.512-8.272 4.776 8.272 4.777 8.274-4.777zm1.274-.735L0 42.623l8.272-4.776L0 33.07Zm-1.274-10.288-8.273 4.776 8.273 4.776 8.274-4.776zm-8.272-6.247 8.272 4.776 8.274-4.776-8.274-4.777zm-9.547-5.512 8.273 4.776 8.273-4.776-8.274-4.777zm-9.546-5.512 8.272 4.777 8.274-4.776-8.274-4.777zm-9.547-5.512 8.273 4.778 8.273-4.777L-38.187 0Zm-9.547-5.51 8.274 4.776 8.272-4.776-8.272-4.778zm-9.547-5.512 8.274 4.776 8.273-4.776-8.273-4.777zm-9.546-5.512 8.274 4.777 8.272-4.777-8.272-4.776zm-9.547-5.512 8.274 4.777 8.273-4.777-8.273-4.776zm-9.545-5.511 8.273 4.776 8.272-4.776-8.273-4.777zm-9.547-5.512 8.273 4.776 8.274-4.776-8.274-4.776zm-9.547-5.512 8.273 4.777 8.274-4.777-8.274-4.776zm-1.273-.734 8.274-4.777-8.274-4.777-8.273 4.778zm-9.546 5.511 8.273-4.777-8.273-4.776-8.273 4.776zm-17.82.735 8.274 4.776 8.273-4.776-8.273-4.776zm-1.273-.734 8.273-4.778-8.273-4.776-8.274 4.776zm-9.547 5.51 8.273-4.776-8.273-4.776-8.273 4.776zm-9.546 5.512 8.273-4.776-8.273-4.777-8.273 4.777zm-17.82.735 8.273 4.777 8.274-4.777-8.274-4.776zm-1.273-.735 8.273-4.776-8.274-4.777-8.272 4.777zm-9.547 5.512 8.273-4.777-8.274-4.776-8.272 4.776zm-9.547 5.512 8.274-4.777-8.274-4.776-8.273 4.776zm-9.545 5.511 8.272-4.776-8.273-4.776-8.273 4.775zm-9.547 5.512 8.273-4.776-8.273-4.778-8.274 4.778zm-9.546 5.512 8.272-4.777L-229.116 0l-8.273 4.776zm-9.547 5.511 8.273-4.777-8.273-4.776-8.274 4.776zm-1.273.735-8.274-4.777-8.273 4.777 8.273 4.777zm1.273 10.288 8.273-4.776-8.273-4.777-8.274 4.777zm-9.546 5.512 8.272-4.777-8.273-4.776-8.273 4.776zm-1.274.735-8.273-4.776-8.274 4.776 8.274 4.776zm1.273 10.288 8.273-4.776-8.273-4.777-8.273 4.777zm-9.546 5.512 8.274-4.777-8.273-4.776-8.274 4.776zm-1.273.735-8.273-4.776-8.273 4.776 8.273 4.776zm9.547 5.512-8.274-4.778-8.273 4.778 8.273 4.776zm1.272 10.288 8.273-4.777-8.273-4.777-8.273 4.777zm-1.273.734-8.273-4.776-8.274 4.776 8.274 4.778zm9.546 5.513-8.273-4.777-8.273 4.776 8.273 4.777zm1.274 10.287 8.273-4.776-8.273-4.777-8.274 4.777zm-1.273.735-8.274-4.776-8.273 4.776 8.274 4.777zm9.546 5.512-8.272-4.776-8.274 4.777 8.273 4.776zm1.274.735-8.274 4.776 8.274 4.778 8.273-4.777zm17.819-.734-8.273-4.777-8.274 4.776 8.274 4.777zm9.547 5.511-8.273-4.776-8.274 4.776 8.274 4.776zm1.272.735-8.273 4.777 8.273 4.776 8.274-4.776zm17.821-.735-8.274-4.777-8.273 4.776 8.273 4.777zm1.273.735-8.273 4.777 8.273 4.775 8.273-4.776zm17.82-.736-8.273-4.776-8.273 4.777 8.272 4.776zm1.273.736-8.273 4.776 8.273 4.777 8.273-4.777zm17.819-.735-8.273-4.776-8.274 4.776 8.274 4.777zm1.274.735-8.274 4.777 8.274 4.776 8.273-4.776zm9.546-5.511-8.273 4.776 8.274 4.776 8.272-4.776zm17.82-.736-8.273-4.776-8.274 4.776 8.274 4.777zm1.273.736-8.273 4.776 8.273 4.776 8.273-4.776zm9.546-5.512-8.272 4.777 8.272 4.776 8.273-4.777zm9.547-5.512-8.273 4.776 8.273 4.777 8.273-4.777zm9.547-5.512-8.273 4.778 8.272 4.775 8.273-4.776zm9.546-5.511-8.274 4.777 8.274 4.776 8.273-4.777zm9.547-5.511-8.274 4.775 8.274 4.777 8.272-4.776zm9.546-5.513-8.273 4.777 8.274 4.776 8.272-4.776zm9.547-5.511-8.273 4.776 8.273 4.777 8.272-4.776zm9.545-5.511-8.272 4.776 8.272 4.776 8.274-4.776zm9.547-5.512-8.273 4.776 8.273 4.777 8.274-4.777zm1.274-.735 8.273 4.776 8.273-4.776-8.273-4.777zm-1.274-10.288-8.273 4.776 8.273 4.776 8.274-4.776zm1.274-.736 8.273 4.777 8.273-4.777-8.274-4.776zm-9.547-5.511 8.273 4.776 8.273-4.776-8.273-4.777zm-9.546-5.512 8.273 4.777 8.273-4.776-8.274-4.778zm-9.547-5.512 8.274 4.777 8.273-4.776-8.273-4.777zm-9.547-5.512 8.274 4.778 8.273-4.777L-57.279 0Zm-9.546-5.51 8.274 4.776 8.272-4.776-8.273-4.778zm-9.547-5.512 8.274 4.776 8.273-4.776-8.273-4.776zm-9.546-5.512 8.273 4.777 8.273-4.777-8.273-4.776zm-9.546-5.512 8.273 4.777 8.274-4.777-8.274-4.776zm-9.547-5.511 8.273 4.776 8.274-4.776-8.274-4.777zm-1.273-.736 8.273-4.776-8.274-4.776-8.272 4.776zm-9.546 5.512 8.273-4.776-8.273-4.777-8.274 4.777zm-17.82.735 8.274 4.777 8.272-4.777-8.273-4.776zm-1.273-.735 8.273-4.776-8.273-4.777-8.274 4.777zm-9.547 5.512 8.273-4.777-8.272-4.776-8.274 4.776zm-9.546 5.512 8.273-4.777-8.273-4.776-8.273 4.776zm-17.819.735 8.273 4.776 8.273-4.776-8.274-4.776zm-1.274-.735 8.273-4.777-8.274-4.776-8.272 4.776zm-9.547 5.511 8.274-4.776-8.274-4.776-8.273 4.776zm-9.546 5.512 8.273-4.776-8.274-4.777-8.272 4.776zm-9.546 5.512 8.273-4.777L-210.022 0l-8.274 4.777zm-9.547 5.511 8.273-4.776-8.273-4.777-8.274 4.776zm-1.274.736-8.273-4.778-8.274 4.777 8.275 4.777zm1.274 10.288 8.273-4.777-8.273-4.777-8.273 4.777zm-9.546 5.511 8.273-4.777-8.273-4.776-8.274 4.776zm-1.274.735-8.273-4.776-8.273 4.776 8.273 4.776zm1.274 10.288 8.272-4.776-8.273-4.777-8.273 4.777zm-9.547 5.512 8.272-4.777-8.272-4.776-8.274 4.776zm-1.273.734-8.273-4.776-8.273 4.777 8.273 4.776zm9.546 5.512-8.273-4.777-8.274 4.777 8.274 4.777zm1.274 10.289 8.273-4.777-8.273-4.777-8.274 4.777zm-1.274.734-8.273-4.776-8.274 4.776 8.274 4.778zm9.546 5.512-8.273-4.776-8.273 4.776 8.274 4.776zm19.094 11.023-8.274-4.776-8.273 4.776 8.274 4.777zm1.272.736-8.272 4.776 8.273 4.777 8.273-4.777zm17.821-.736-8.273-4.776-8.274 4.776 8.273 4.777zm1.273.736-8.273 4.776 8.273 4.777 8.274-4.777zm17.82-.736-8.274-4.776-8.273 4.776 8.273 4.777zm1.273.736-8.273 4.777 8.272 4.776 8.273-4.777zm17.819-.736-8.273-4.776-8.273 4.776 8.273 4.777zm1.274.736-8.274 4.776 8.274 4.777 8.273-4.777zm9.546-5.512-8.273 4.776 8.274 4.777 8.272-4.777zm17.819-.735-8.272-4.777-8.274 4.777 8.274 4.776zm1.273.735-8.272 4.776 8.273 4.777 8.273-4.777zm9.547-5.512-8.273 4.777 8.273 4.776 8.274-4.776zm9.547-5.511-8.273 4.777 8.273 4.776 8.274-4.777zm9.546-5.512-8.273 4.777 8.273 4.777 8.273-4.777zm9.547-5.511-8.274 4.776 8.274 4.777 8.273-4.776zm9.547-5.513-8.274 4.777 8.274 4.777 8.272-4.776zm9.546-5.51-8.273 4.776 8.274 4.776 8.272-4.776zm9.546-5.512-8.273 4.776 8.274 4.777 8.272-4.777zm1.274-.735 8.272 4.776 8.274-4.776-8.274-4.777zm-1.273-10.288-8.274 4.776 8.274 4.776 8.272-4.776zm1.273-.736 8.272 4.777 8.274-4.777-8.274-4.776zm-9.547-5.511 8.274 4.776 8.273-4.776-8.273-4.777zm-9.547-5.512 8.274 4.777 8.273-4.777-8.273-4.777zm-9.546-5.512 8.274 4.777 8.272-4.777-8.272-4.776zm-9.547-5.512 8.274 4.778 8.273-4.777L-76.372 0Zm-9.545-5.51 8.272 4.776 8.273-4.776-8.272-4.778zm-9.547-5.512 8.273 4.776 8.274-4.776-8.274-4.777zm-9.547-5.512 8.273 4.777 8.274-4.777-8.274-4.776zm-1.273-.735 8.274-4.777-8.274-4.776-8.273 4.776zm-9.546 5.512 8.273-4.777-8.273-4.776-8.274 4.776zm-17.82.735 8.273 4.776 8.273-4.776-8.273-4.776zm-1.273-.735 8.273-4.777-8.273-4.776-8.274 4.776zm-9.546 5.511 8.272-4.776-8.273-4.776-8.273 4.776zm-9.547 5.512 8.272-4.776-8.273-4.777-8.272 4.776zm-17.82.735 8.273 4.777 8.274-4.777L-171.837 0Zm-1.273-.735 8.273-4.776-8.273-4.777-8.273 4.777zm-9.547 5.512 8.274-4.777-8.274-4.776-8.272 4.776zm-9.547 5.511 8.274-4.776-8.273-4.776-8.273 4.776zm-1.272.736-8.273-4.778-8.274 4.778 8.274 4.776zm1.272 10.287 8.274-4.776-8.274-4.777-8.272 4.777zm-9.545 5.512 8.272-4.777-8.272-4.776-8.274 4.776zm-1.274.735-8.273-4.776-8.274 4.776 8.274 4.776zm1.274 10.288 8.273-4.776-8.273-4.777-8.274 4.777zm-9.547 5.512 8.273-4.777-8.273-4.776-8.274 4.776zm-1.274.735-8.273-4.776-8.274 4.776 8.274 4.776zm9.547 5.512-8.273-4.777-8.274 4.777 8.274 4.776zm1.274 10.288 8.272-4.776-8.273-4.778-8.274 4.778zm-1.273.734-8.274-4.776-8.274 4.776 8.274 4.778zm9.546 5.512-8.272-4.776-8.274 4.776 8.273 4.776zm1.273.735-8.274 4.777 8.274 4.776 8.274-4.776zm17.82-.734-8.275-4.777-8.272 4.776 8.273 4.777zm1.272.734-8.273 4.777 8.273 4.777 8.274-4.777zm17.821-.734-8.274-4.777-8.273 4.776 8.273 4.776zm1.272.734-8.272 4.777 8.273 4.776 8.272-4.776zm17.82-.735-8.273-4.776-8.274 4.776 8.274 4.776zm1.274.735-8.274 4.777 8.274 4.776 8.273-4.776zm9.546-5.51-8.273 4.776 8.273 4.775 8.273-4.775zm17.82-.737-8.273-4.775-8.273 4.776 8.273 4.777zm1.272.736-8.272 4.776 8.273 4.776 8.273-4.776zm9.547-5.512-8.273 4.776 8.273 4.778 8.274-4.778zm9.546-5.512-8.272 4.778 8.273 4.776 8.273-4.776zm9.547-5.511-8.272 4.776 8.273 4.777 8.272-4.776zm9.547-5.512-8.274 4.776 8.274 4.777 8.273-4.776zm9.546-5.511-8.273 4.776 8.274 4.777 8.272-4.777zm1.273-.735 8.274 4.776 8.272-4.776-8.272-4.777zm-1.272-10.288-8.274 4.776 8.274 4.776 8.272-4.776zm1.273-.736 8.273 4.777 8.273-4.777-8.272-4.776zm-9.547-5.511 8.274 4.776 8.273-4.776-8.273-4.777zm-9.547-5.512 8.274 4.776 8.273-4.776-8.273-4.777zm-9.546-5.512 8.274 4.777 8.272-4.777-8.273-4.776zm-9.546-5.511 8.273 4.777 8.274-4.778L-95.465 0Zm-9.547-5.512 8.273 4.777 8.274-4.776-8.274-4.778zm-1.273-.735 8.274-4.776-8.274-4.776-8.273 4.776zm-9.546 5.512 8.273-4.776-8.273-4.778-8.274 4.778zm-17.82.734 8.274 4.778 8.272-4.777L-133.651 0Zm-1.273-.734 8.273-4.776-8.273-4.778-8.274 4.778zm-9.546 5.511 8.272-4.776L-152.744 0l-8.273 4.776zm-9.547 5.512 8.272-4.776-8.273-4.777-8.272 4.776zm-17.82.735 8.273 4.776 8.274-4.775-8.274-4.778zm-1.273-.735 8.273-4.776-8.274-4.777-8.272 4.776zm-1.273.735-8.274-4.777-8.273 4.778 8.273 4.776zm1.272 10.288 8.274-4.776-8.274-4.777-8.273 4.777zm-9.546 5.512 8.274-4.777-8.274-4.776-8.273 4.776zm-1.273.735-8.274-4.776-8.273 4.776 8.273 4.776zm1.273 10.288 8.274-4.776-8.274-4.777-8.273 4.777zm-9.547 5.512 8.274-4.777-8.274-4.776-8.272 4.776zm-1.273.735-8.273-4.776-8.273 4.776 8.274 4.776zm9.547 5.512-8.274-4.778-8.272 4.777 8.273 4.777zm10.819 6.246-8.272 4.776 8.273 4.778 8.273-4.777zm17.821-.734-8.274-4.778-8.273 4.777 8.273 4.777zm1.273.734-8.273 4.776 8.273 4.778 8.273-4.778zm17.819-.734-8.273-4.777-8.274 4.777 8.274 4.776zm1.273.734-8.273 4.776 8.274 4.778 8.272-4.777zm9.547-5.512-8.273 4.777 8.274 4.777 8.272-4.776zm17.82-.734-8.273-4.778-8.274 4.778 8.274 4.776zm1.273.735-8.273 4.777 8.272 4.776 8.274-4.776zm9.546-5.512-8.272 4.777 8.272 4.776 8.274-4.776zm9.547-5.511-8.272 4.776 8.272 4.776 8.273-4.776zm9.547-5.512-8.273 4.776 8.273 4.777 8.272-4.777zm1.273-.735 8.274 4.776 8.272-4.776-8.273-4.777zm-1.274-10.288-8.272 4.776 8.273 4.776 8.272-4.776zm1.273-.736 8.274 4.777 8.273-4.777-8.273-4.776zm-9.545-5.511 8.272 4.776 8.273-4.776-8.273-4.777zm-9.547-5.512 8.273 4.777 8.274-4.776-8.275-4.778zm-9.546-5.511 8.272 4.776 8.274-4.777-8.274-4.775zm-1.274-.735 8.273-4.777L-114.559 0l-8.273 4.776zm-9.546 5.51 8.273-4.776-8.273-4.776-8.274 4.776zm-17.82.736 8.274 4.776 8.272-4.776-8.273-4.777zm-1.273-.736 8.273-4.775-8.273-4.777-8.274 4.776zm-9.547 5.513 8.273-4.776-8.273-4.778-8.274 4.777zm-9.546 5.511 8.272-4.776-8.273-4.777-8.272 4.777zm-9.547 5.513 8.274-4.778-8.274-4.776-8.273 4.776zm-1.273.734-8.274-4.776-8.272 4.776 8.273 4.776zm1.273 10.288 8.274-4.776-8.274-4.777-8.273 4.777zm-9.546 5.512 8.273-4.777-8.274-4.776-8.273 4.776zm-1.273.735-8.274-4.777-8.273 4.777 8.273 4.776zm1.273.735-8.273 4.777 8.272 4.776 8.274-4.777zm17.82-.735-8.274-4.776-8.273 4.776 8.273 4.776zm1.272.734-8.273 4.777 8.274 4.777 8.272-4.776zm17.82-.734-8.273-4.777-8.274 4.777 8.275 4.776zm1.274.734-8.274 4.778 8.274 4.776 8.273-4.776zm9.546-5.51-8.274 4.776 8.274 4.776 8.273-4.776zm17.82-.736-8.273-4.776-8.274 4.776 8.274 4.777zm1.272.736-8.272 4.776 8.273 4.776 8.273-4.776zm9.547-5.512-8.273 4.776 8.274 4.777 8.273-4.777zm1.274-.735 8.273 4.776 8.274-4.776-8.274-4.777zm-1.274-10.288-8.272 4.776 8.273 4.776 8.273-4.776zm1.274-.736 8.273 4.777 8.274-4.777-8.274-4.776zm-9.547-5.511 8.274 4.776 8.273-4.776-8.274-4.777zm-1.273-.736 8.273-4.776-8.273-4.777-8.273 4.777zm-9.546 5.512 8.273-4.776-8.273-4.777-8.273 4.777zm-17.82.735 8.273 4.777 8.273-4.777-8.273-4.776zm-1.273-.735 8.272-4.776-8.273-4.777-8.273 4.777zm-9.547 5.512 8.273-4.777-8.273-4.776-8.274 4.776zm-1.274.735-8.273-4.776-8.273 4.776 8.273 4.776zm10.82 6.247-8.273 4.776 8.274 4.777 8.273-4.777zm8.273-6.247-8.272-4.776-8.274 4.776 8.274 4.776zm1.274.735-8.274 4.777 8.275 4.776 8.272-4.776zm19.093-1.47 8.274-4.777-8.275-4.776-8.272 4.776zm-8.273 6.247 8.273 4.776 8.273-4.776-8.274-4.777zm7-5.512-8.273-4.776-8.274 4.776 8.274 4.776zm-46.459 6.247-8.273 4.776 8.273 4.777 8.272-4.777zm9.546 4.041 8.273-4.776-8.273-4.777-8.273 4.777zm-47.733 18.006-8.272 4.776 8.272 4.777 8.274-4.778zm9.547 4.041 8.273-4.776-8.273-4.777-8.272 4.777zm-38.185 12.493-8.274 4.776 8.273 4.777 8.273-4.777zm9.546 4.041 8.273-4.776-8.273-4.777-8.273 4.777zM9.546 26.088l8.273-4.776-8.273-4.777-8.273 4.777ZM0 22.047l-8.273 4.776L0 31.6l8.273-4.777ZM9.546 5.512l-8.273 4.776 8.273 4.776 8.273-4.776zm9.548 4.041L40.803-2.981a42.473 42.473 0 0 1-.07 1.51L20.366 10.288l8.274 4.776 10.232-5.907a59.982 59.982 0 0 1-.532 1.779L29.913 15.8l5.296 3.057c-.181.384-.367.768-.556 1.151l-6.013-3.473-8.274 4.777 8.274 4.776 4.046-2.336a85.893 85.893 0 0 1-1.283 2.211l-1.49.86.713.412c-.225.36-.449.719-.68 1.078l-1.307-.754-8.273 4.776 4.811 2.777c-.26.34-.521.679-.784 1.018l-5.3-3.06-8.273 4.777 8.195 4.731-.167.187.005-.003c-.036.04-.074.078-.109.118l-.598.667-.01-.006a146.98 146.98 0 0 1-2.161 2.353l-5.156 2.976 1.43.825c-.312.31-.627.618-.942.926l-1.761-1.016-8.273 4.777 3.683 2.126c-.335.297-.67.593-1.008.888L0 55.116l-8.273 4.778 5.461 3.153c-.355.285-.709.57-1.067.853l-5.668-3.271-8.273 4.776 6.805 3.929c-.374.275-.749.548-1.125.82l-6.953-4.014-8.273 4.776 7.737 4.467c-.392.264-.787.526-1.181.789l-7.83-4.521-8.272 4.777 8.262 4.769c-.412.254-.824.508-1.236.759l-8.301-4.793-8.272 4.776 8.38 4.839-1.288.727-8.365-4.83-8.274 4.777 8.099 4.675c-.447.233-.895.466-1.341.696l-8.031-4.636-8.274 4.776 7.417 4.282c-.466.223-.93.445-1.394.665l-7.295-4.212-8.274 4.777 6.323 3.65c-.486.212-.97.424-1.453.632l-6.143-3.547-8.274 4.776 4.78 2.759c-.509.201-1.015.4-1.518.594l-4.534-2.618-8.273 4.777 2.705 1.562c-.54.187-1.072.368-1.6.546l-2.379-1.373-7.916 4.57c-.16.045-.325.087-.485.132l.008.004c-.572.161-1.15.317-1.727.475l-.015-.009c-.861.235-1.712.474-2.587.702l1.902-1.098-8.273-4.776-8.273 4.777 5.662 3.268c-.612.137-1.226.273-1.842.406l-5.093-2.94-8.273 4.777.952.55c-.658.111-1.318.22-1.98.327l-.245-.142-.436.251a285.78 285.78 0 0 1-3.469.533l2.631-1.519-8.273-4.777-8.273 4.777 4.72 2.725c-.709.083-1.418.164-2.13.241l-3.864-2.231-5.313 3.067c-.965.073-1.931.141-2.9.204l6.939-4.006-8.272-4.776-8.273 4.776 7.199 4.156c-.778.045-1.558.084-2.337.121l-6.135-3.542-6.688 3.862c-.845 0-1.691 0-2.537-.007l7.952-4.59-8.274-4.777-8.273 4.777 7.933 4.581c-.87-.009-1.741-.02-2.612-.038l-6.595-3.808-5.617 3.243c-.751-.053-1.504-.108-2.255-.168l6.599-3.81-8.274-4.777-8.272 4.777 5.978 3.451c-1.041-.102-2.08-.211-3.116-.328l-4.136-2.388-2.625 1.516c-.674-.098-1.345-.202-2.016-.307l3.367-1.944-8.272-4.776-7.547 4.357c-.61-.137-1.221-.272-1.827-.415l8.1-4.678-8.273-4.776-8.273 4.776 7.853 4.534a172.851 172.851 0 0 1-4.574-1.17l-4.552-2.629-1.503.868c-.549-.173-1.1-.343-1.646-.52l1.875-1.083-8.273-4.777-3.724 2.151c-.493-.203-.981-.413-1.47-.621l3.922-2.264-8.274-4.777-4.749 2.741c-.444-.232-.89-.463-1.33-.701l4.806-2.775-8.273-4.776-4.679 2.701c-.396-.26-.783-.528-1.174-.792l4.579-2.644-8.273-4.777-3.548 2.048c-.351-.287-.701-.574-1.048-.865l3.323-1.918-8.274-4.777-1.423.822c-.307-.312-.62-.62-.924-.937l1.074-.62-3.534-2.04a88.248 88.248 0 0 1-2.424-2.87l7.231 4.175 8.273-4.777-8.273-4.776-7.886 4.554c-.267-.337-.538-.667-.801-1.008l7.414-4.281-8.273-4.777-3.884 2.243a56.32 56.32 0 0 1-.658-1.09l3.269-1.887-6.006-3.468a40.352 40.352 0 0 1-.767-1.913l8.046 4.646 8.274-4.778-8.273-4.776-8.127 4.692a40.26 40.26 0 0 1-.425-1.225l7.278-4.201-8.274-4.778-.699.405c-.019-.276-.029-.555-.042-.833l-.007-.003c-.004-.089-.004-.181-.007-.27-.005-.108-.013-.214-.017-.322l.008-.005c-.009-.299-.022-.596-.024-.898l.789.456 8.273-4.776-8.089-4.671c.017-.081.038-.164.056-.245l-.003.002c.022-.101.05-.204.073-.305.057-.25.111-.497.172-.749l.006.003c.054-.218.101-.434.158-.655l7.627-4.403-5.17-2.985c.158-.392.322-.789.49-1.187l5.953 3.436 8.273-4.776-8.273-4.776-4.264 2.462c.352-.704.716-1.405 1.098-2.104l1.893-1.094-.96-.554c.213-.365.433-.729.654-1.092l1.58.912 8.273-4.777-5.182-2.992c.258-.34.516-.679.782-1.018l5.672 3.275 8.273-4.776-8.273-4.777-.713.412c.163-.179.34-.355.504-.533l-.008-.005c.295-.319.588-.639.888-.958l.021.013c.555-.588 1.095-1.18 1.669-1.763l5.912-3.413-1.485-.858c.326-.301.651-.603.983-.902l1.776 1.025 8.274-4.776-3.363-1.943c.354-.285.706-.57 1.064-.854l3.571 2.061 8.274-4.776-4.652-2.686c.38-.27.756-.543 1.139-.812l4.786 2.763 8.274-4.777-5.41-3.123c.402-.258.805-.515 1.209-.771l5.473 3.159 8.273-4.777-5.68-3.279c.423-.247.849-.49 1.275-.735l5.68 3.279 8.272-4.776-5.495-3.172 1.333-.701 5.435 3.138 8.273-4.777-4.876-2.814c.461-.225.922-.45 1.386-.672l4.765 2.751 8.272-4.776-3.846-2.22 1.44-.64 3.68 2.125 8.273-4.776-2.411-1.393c.498-.203.997-.404 1.496-.606l2.188 1.263 8.274-4.776-.574-.332c.515-.193 1.034-.383 1.551-.574l.295.17 1.336-.771a440.489 440.489 0 0 1 6.629-2.357l-6.691 3.863 8.273 4.777 8.273-4.777-7.874-4.546c.534-.183 1.07-.362 1.605-.543l7.542 4.354 8.274-4.777-5.211-3.009c.552-.171 1.108-.339 1.663-.508l4.821 2.783 8.272-4.777-2.109-1.217c.575-.161 1.151-.317 1.727-.475l1.656.957 4.47-2.581c1.488-.379 2.974-.747 4.46-1.104l-7.657 4.42 8.274 4.777 8.273-4.777-8.013-4.627c.601-.143 1.205-.287 1.806-.426l7.48 4.318 8.273-4.776-3.645-2.105c.637-.123 1.276-.247 1.914-.366l3.005 1.735 5.549-3.204c1.158-.182 2.314-.362 3.466-.531l-7.742 4.471 8.272 4.776 8.274-4.776-7.949-4.59c.684-.098 1.368-.193 2.05-.286l7.172 4.14 10.451-6.034c.97-.074 1.937-.139 2.901-.204l-12.078 6.974 8.273 4.776 21.428-12.371c.849-.002 1.698-.004 2.542.003l-22.696 13.103 8.273 4.777 29.94-17.286c.751.053 1.499.114 2.244.173L-84.646-50.34l8.274 4.777 36.476-21.059c.675.099 1.349.199 2.019.305l-37.222 21.489 8.274 4.777 41.364-23.882c.606.139 1.202.287 1.802.43l-41.893 24.187 8.274 4.776 44.759-25.842c.543.176 1.081.356 1.619.536l-45.106 26.041 8.274 4.777L-.95-56.038c.484.211.968.421 1.445.636l-46.954 27.109 8.273 4.776L9.301-50.933c.428.245.854.487 1.273.735l-47.487 27.417 8.273 4.776 46.886-27.069c.369.277.739.553 1.101.835L-27.366-17.27l8.273 4.777 44.955-25.955c.309.312.621.622.921.938l-44.602 25.752 8.273 4.777 41.632-24.037c.244.35.495.696.729 1.049L-8.272-6.246.001-1.47l36.811-21.253c.174.39.348.78.513 1.173L1.273-.735l8.274 4.776 30.32-17.505c.093.44.181.88.26 1.32L10.82 4.776Z" style="fill:#fff;fill-opacity:1;fill-rule:nonzero;stroke:none" transform="matrix(1.30377 .27922 .27922 -1.30377 758.743 482.785)"/></g><path d="M0 0c-21.104 0-38.212-17.108-38.212-38.212 0-21.104 17.108-38.212 38.212-38.212 21.104 0 38.212 17.108 38.212 38.212C38.212-17.108 21.104 0 0 0" style="fill:#e8b800;fill-opacity:1;fill-rule:evenodd;stroke:none" transform="matrix(1.30377 .27922 .27922 -1.30377 587.864 262.737)"/><path d="M0 0c-11.625 0-22.037-5.193-29.045-13.386-.4-2.216-.61-4.496-.61-6.827 0-21.103 17.109-38.212 38.213-38.212 11.626 0 22.037 5.194 29.046 13.385.398 2.216.608 4.497.608 6.828C38.212-17.108 21.104 0 0 0" style="fill:#fff030;fill-opacity:1;fill-rule:evenodd;stroke:none" transform="matrix(1.30377 .27922 .27922 -1.30377 587.864 262.737)"/><path d="M0 0c.06-1.492.205-2.962.431-4.406 1.252.141 2.524.217 3.813.217 18.214 0 33.059-14.414 33.758-32.457l.175-.001c1.435 0 2.851.081 4.244.235C41.601-16.033 24.824.236 4.244.236 2.81.236 1.394.155 0 0m36.579 39.74a36.888 36.888 0 0 1-.024-1.292C36.555 17.344 53.662.236 74.767.236c.536 0 1.068.014 1.599.035.014.43.024.86.024 1.293 0 1.055-.045 2.1-.13 3.133a35.14 35.14 0 0 0-1.493-.035c-18.66 0-33.786 15.127-33.786 33.786 0 .41.01.818.024 1.224-.933.068-1.876.104-2.828.104-.536 0-1.068-.014-1.598-.036" style="fill:#fcd6bd;fill-opacity:1;fill-rule:evenodd;stroke:none" transform="matrix(1.30377 .27922 .27922 -1.30377 526.983 303.937)"/></g><g style="display:inline"><text xml:space="preserve" style="font-style:normal;font-weight:400;font-size:120px;line-height:1.25;font-family:sans-serif;white-space:pre;shape-inside:url(#b);display:inline;fill:#fafffa;fill-opacity:1;stroke:none" transform="rotate(-19.157 465.724 445.81)"><tspan x="81.371" y="220.422"><tspan style="font-family:FreeSans;-inkscape-font-specification:FreeSans">4</tspan></tspan></text><text xml:space="preserve" style="font-style:normal;font-weight:400;font-size:120px;line-height:1.25;font-family:sans-serif;white-space:pre;shape-inside:url(#c);display:inline;fill:#fafffa;fill-opacity:1;stroke:none" transform="rotate(-23.832 356.29 38.965)"><tspan x="81.371" y="220.422"><tspan style="font-family:FreeSans;-inkscape-font-specification:FreeSans">4</tspan></tspan></text><g style="display:inline;fill:#4e4395;fill-opacity:1"><path d="M0 0c-21.104 0-38.212-11.156-38.212-24.917 0-13.762 17.108-24.918 38.212-24.918 21.104 0 38.211 11.156 38.211 24.918C38.211-11.156 21.104 0 0 0" style="fill:#4e4395;fill-opacity:1;fill-rule:evenodd;stroke:none" transform="matrix(1.05753 .11918 .106 -.94053 116.992 269.958)"/></g><g style="display:inline"><path d="M0 0c-21.104 0-38.212-17.108-38.212-38.212 0-21.104 17.108-38.212 38.212-38.212 21.104 0 38.212 17.108 38.212 38.212C38.212-17.108 21.104 0 0 0" style="fill:#e8b800;fill-opacity:1;fill-rule:evenodd;stroke:none" transform="matrix(.92624 .10438 .10613 -.94176 119.316 234.328)"/><path d="M0 0c-11.625 0-22.037-5.193-29.045-13.386-.4-2.216-.61-4.496-.61-6.827 0-21.103 17.109-38.212 38.213-38.212 11.626 0 22.037 5.194 29.046 13.385.398 2.216.608 4.497.608 6.828C38.212-17.108 21.104 0 0 0" style="fill:#fff030;fill-opacity:1;fill-rule:evenodd;stroke:none" transform="matrix(.92624 .10438 .10613 -.94176 119.316 234.328)"/><path d="M0 0c.06-1.492.205-2.962.431-4.406 1.252.141 2.524.217 3.813.217 18.214 0 33.059-14.414 33.758-32.457l.175-.001c1.435 0 2.851.081 4.244.235C41.601-16.033 24.824.236 4.244.236 2.81.236 1.394.155 0 0m36.579 39.74a36.888 36.888 0 0 1-.024-1.292C36.555 17.344 53.662.236 74.767.236c.536 0 1.068.014 1.599.035.014.43.024.86.024 1.293 0 1.055-.045 2.1-.13 3.133a35.14 35.14 0 0 0-1.493-.035c-18.66 0-33.786 15.127-33.786 33.786 0 .41.01.818.024 1.224-.933.068-1.876.104-2.828.104-.536 0-1.068-.014-1.598-.036" style="fill:#fcd6bd;fill-opacity:1;fill-rule:evenodd;stroke:none" transform="matrix(.92624 .10438 .10613 -.94176 79.733 267.803)"/></g></g></svg>